# Made in Blockbench 4.7.2
mtllib spaceship.mtl

o main_body
v 0 1.125 0
v 0.13397459621556132 1.125 0.49999999999999994
v 0.13397459621556132 1.25 0.49999999999999994
v 0.3660254037844386 1.125 0.36602540378443865
v 0.3660254037844386 1.25 0.36602540378443865
v 0.49999999999999994 1.125 0.13397459621556132
v 0.49999999999999994 1.25 0.13397459621556132
v 0.49999999999999994 1.125 -0.13397459621556138
v 0.49999999999999994 1.25 -0.13397459621556138
v 0.36602540378443865 1.125 -0.3660254037844386
v 0.36602540378443865 1.25 -0.3660254037844386
v 0.1339745962155615 1.125 -0.4999999999999999
v 0.1339745962155615 1.25 -0.4999999999999999
v -0.13397459621556113 1.125 -0.5
v -0.13397459621556113 1.25 -0.5
v -0.3660254037844386 1.125 -0.3660254037844387
v -0.3660254037844386 1.25 -0.3660254037844387
v -0.49999999999999994 1.125 -0.13397459621556126
v -0.49999999999999994 1.25 -0.13397459621556126
v -0.5 1.125 0.1339745962155611
v -0.5 1.25 0.1339745962155611
v -0.3660254037844387 1.125 0.36602540378443854
v -0.3660254037844387 1.25 0.36602540378443854
v -0.1339745962155613 1.125 0.49999999999999994
v -0.1339745962155613 1.25 0.49999999999999994
v -0.18749999999999997 1.375 -0.05024047358083548
v -0.18750000000000003 1.375 0.05024047358083541
v -1.734723475976807e-17 1.375 -6.245004513516505e-18
v -0.1372595264191645 1.375 -0.13725952641916453
v -0.05024047358083544 1.375 -0.1875
v 0.05024047358083554 1.375 -0.1875
v 0.13725952641916447 1.375 -0.13725952641916447
v 0.18749999999999997 1.375 -0.050240473580835526
v 0.18749999999999997 1.375 0.05024047358083549
v 0.13725952641916445 1.375 0.1372595264191645
v 0.05024047358083548 1.375 0.1875
v -0.0502404735808355 1.375 0.1875
v -0.13725952641916453 1.375 0.13725952641916445
vt 0.45088125 0.73213125
vt 0.39286875 0.765625
vt 0.359375 0.640625
vt 0.41630625 0.921875
vt 0.48329375 0.921875
vt 0.48329375 0.953125
vt 0.41630625 0.953125
vt 0.15125317969506027 0.8115585120871833
vt 0.17300942969506028 0.8241178870871833
vt 0.13869380469506026 0.8584335120871833
vt 0.484375 0.67411875
vt 0.45088125 0.73213125
vt 0.359375 0.640625
vt 0.26670625 0.96875
vt 0.33369375 0.96875
vt 0.33369375 1
vt 0.26670625 1
vt 0.17300942969506028 0.8241178870871833
vt 0.18556880469506026 0.8458741370871834
vt 0.13869380469506026 0.8584335120871833
vt 0.484375 0.60713125
vt 0.484375 0.67411875
vt 0.359375 0.640625
vt 0.33369375 0.96875
vt 0.40068125 0.96875
vt 0.40068125 1
vt 0.33369375 1
vt 0.18556880469506026 0.8458741370871834
vt 0.18556880469506026 0.8709928870871834
vt 0.13869380469506026 0.8584335120871833
vt 0.45088125 0.54911875
vt 0.484375 0.60713125
vt 0.359375 0.640625
vt 0.40068125 0.96875
vt 0.46766875 0.96875
vt 0.46766875 1
vt 0.40068125 1
vt 0.18556880469506026 0.8709928870871834
vt 0.17300942969506028 0.8927491370871833
vt 0.13869380469506026 0.8584335120871833
vt 0.39286875 0.515625
vt 0.45088125 0.54911875
vt 0.359375 0.640625
vt 0.29795625 0.875
vt 0.36494375 0.875
vt 0.36494375 0.90625
vt 0.29795625 0.90625
vt 0.17300942969506028 0.8927491370871833
vt 0.15125317969506025 0.9053085120871833
vt 0.13869380469506026 0.8584335120871833
vt 0.32588125 0.515625
vt 0.39286875 0.515625
vt 0.359375 0.640625
vt 0.36494375 0.875
vt 0.43193125 0.875
vt 0.43193125 0.90625
vt 0.36494375 0.90625
vt 0.15125317969506025 0.9053085120871833
vt 0.12613442969506028 0.9053085120871833
vt 0.13869380469506026 0.8584335120871833
vt 0.26786875 0.54911875
vt 0.32588125 0.515625
vt 0.359375 0.640625
vt 0.43193125 0.875
vt 0.49891875 0.875
vt 0.49891875 0.90625
vt 0.43193125 0.90625
vt 0.12613442969506028 0.9053085120871833
vt 0.10437817969506026 0.8927491370871833
vt 0.13869380469506026 0.8584335120871833
vt 0.234375 0.60713125
vt 0.26786875 0.54911875
vt 0.359375 0.640625
vt 0.001081249999999992 0.671875
vt 0.06806875 0.671875
vt 0.06806875 0.703125
vt 0.001081249999999992 0.703125
vt 0.10437817969506026 0.8927491370871833
vt 0.09181880469506026 0.8709928870871834
vt 0.13869380469506026 0.8584335120871833
vt 0.234375 0.67411875
vt 0.234375 0.60713125
vt 0.359375 0.640625
vt 0.06806875 0.671875
vt 0.13505625 0.671875
vt 0.13505625 0.703125
vt 0.06806875 0.703125
vt 0.09181880469506026 0.8709928870871834
vt 0.09181880469506026 0.8458741370871834
vt 0.13869380469506026 0.8584335120871833
vt 0.26786875 0.73213125
vt 0.234375 0.67411875
vt 0.359375 0.640625
vt 0.13505625 0.671875
vt 0.20204375000000002 0.671875
vt 0.20204375000000002 0.703125
vt 0.13505625 0.703125
vt 0.09181880469506026 0.8458741370871834
vt 0.10437817969506026 0.8241178870871833
vt 0.13869380469506026 0.8584335120871833
vt 0.32588125 0.765625
vt 0.26786875 0.73213125
vt 0.359375 0.640625
vt 0.28233125 0.921875
vt 0.34931875 0.921875
vt 0.34931875 0.953125
vt 0.28233125 0.953125
vt 0.10437817969506026 0.8241178870871833
vt 0.12613442969506028 0.8115585120871833
vt 0.13869380469506026 0.8584335120871833
vt 0.39286875 0.765625
vt 0.32588125 0.765625
vt 0.359375 0.640625
vt 0.34931875 0.921875
vt 0.41630625 0.921875
vt 0.41630625 0.953125
vt 0.34931875 0.953125
vt 0.12613442969506028 0.8115585120871833
vt 0.15125317969506027 0.8115585120871833
vt 0.13869380469506026 0.8584335120871833
vt 0.09181880469506026 0.8458741370871834
vt 0.09181880469506026 0.8709928870871833
vt 0.007675054695060246 0.8919272620871833
vt 0.007675054695060246 0.8249397620871833
vt 0.09182000594484782 0.8709949679782062
vt 0.10437817969506026 0.8927491370871833
vt 0.04197141787922981 0.9529472666292658
vt 0.008480871411258417 0.8949325404511077
vt 0.10438026058608313 0.8927503383369709
vt 0.12613442969506028 0.9053085120871833
vt 0.10219685722215875 0.9886476466207728
vt 0.04418213104400075 0.9551571001528013
vt 0.13355380994807922 0.91346990615437
vt 0.1582684147514118 0.908982154938272
vt 0.19389920932993637 0.9880319190012096
vt 0.12798949689347985 1
vt 0.1582684147514118 0.908982154938272
vt 0.17799891646027632 0.893436772862588
vt 0.24651715342439023 0.9465749881509533
vt 0.19389920932993635 0.9880319190012096
vt 0.17799891646027632 0.893436772862588
vt 0.18814495728579683 0.8704583164929933
vt 0.27357494530493975 0.8852952928612503
vt 0.2465171534243902 0.9465749881509534
vt 0.18814495728579683 0.8704583164929933
vt 0.18634088942911542 0.845404435741082
vt 0.268763798430615 0.8184807882832495
vt 0.27357494530493975 0.8852952928612503
vt 0.18634088942911542 0.845404435741082
vt 0.1730073488040374 0.8241166858373958
vt 0.23320547834611977 0.7617099240215652
vt 0.268763798430615 0.8184807882832497
vt 0.1730073488040374 0.8241166858373958
vt 0.15125317969506027 0.8115585120871833
vt 0.17519075216796182 0.7282193775535939
vt 0.2332054783461198 0.7617099240215653
vt 0.15125317969506027 0.8115585120871833
vt 0.12613442969506028 0.8115585120871833
vt 0.1052000546950603 0.7274147620871834
vt 0.1721875546950603 0.7274147620871834
vt 0.1261323488040374 0.8115597133369709
vt 0.10437817969506026 0.8241178870871833
vt 0.04418005015297788 0.7617111252713529
vt 0.10219477633113587 0.7282205788033815
vt 0.10437697844527272 0.8241199679782062
vt 0.09181880469506026 0.8458741370871834
vt 0.008479670161470887 0.8219365646142818
vt 0.04197021662944225 0.7639218384361238
vn 0 -1 0
vn 0.4999999999999999 0 0.8660254037844388
vn 0 1 0
vn 0 -1 0
vn 0.8660254037844388 0 0.5
vn 0 1 0
vn 0 -1 0
vn 1 0 0
vn 0 1 0
vn 0 -1 0
vn 0.8660254037844388 0 -0.5
vn 0 1 0
vn 0 -1 0
vn 0.5000000000000001 0 -0.8660254037844388
vn 0 1 0
vn 0 -1 0
vn 4.143408735633879e-16 0 -1
vn 0 1 0
vn 0 -1 0
vn -0.4999999999999996 0 -0.8660254037844389
vn 0 1 0
vn 0 -1 0
vn -0.8660254037844389 0 -0.4999999999999998
vn 0 1 0
vn 0 -1 0
vn -1 0 -2.0717043678169412e-16
vn 0 1 0
vn 0 -1 0
vn -0.8660254037844389 0 0.4999999999999996
vn 0 1 0
vn 0 -1 0
vn -0.4999999999999999 0 0.8660254037844386
vn 0 1 0
vn 0 -1 0
vn 0 0 1
vn 0 1 0
vn -0.3713906763541038 0.9284766908852593 -2.0517644969847595e-16
vn -0.32163376045133873 0.9284766908852594 -0.18569533817705172
vn -0.18569533817705164 0.9284766908852594 -0.32163376045133857
vn 0 0.9284766908852593 -0.37139067635410383
vn 0.185695338177052 0.9284766908852593 -0.3216337604513384
vn 0.32163376045133846 0.9284766908852593 -0.18569533817705192
vn 0.3713906763541038 0.9284766908852594 0
vn 0.32163376045133846 0.9284766908852594 0.1856953381770519
vn 0.18569533817705192 0.9284766908852593 0.32163376045133857
vn 0 0.9284766908852593 0.3713906763541038
vn -0.18569533817705197 0.9284766908852594 0.3216337604513385
vn -0.32163376045133857 0.9284766908852594 0.1856953381770518
usemtl m_089595f9-e365-0ef3-e8d0-cd71ecd6bee1
f 4/1/1 2/2/1 1/3/1
f 2/4/2 4/5/2 5/6/2 3/7/2
f 36/8/3 35/9/3 28/10/3
f 6/11/4 4/12/4 1/13/4
f 4/14/5 6/15/5 7/16/5 5/17/5
f 35/18/6 34/19/6 28/20/6
f 8/21/7 6/22/7 1/23/7
f 6/24/8 8/25/8 9/26/8 7/27/8
f 34/28/9 33/29/9 28/30/9
f 10/31/10 8/32/10 1/33/10
f 8/34/11 10/35/11 11/36/11 9/37/11
f 33/38/12 32/39/12 28/40/12
f 12/41/13 10/42/13 1/43/13
f 10/44/14 12/45/14 13/46/14 11/47/14
f 32/48/15 31/49/15 28/50/15
f 14/51/16 12/52/16 1/53/16
f 12/54/17 14/55/17 15/56/17 13/57/17
f 31/58/18 30/59/18 28/60/18
f 16/61/19 14/62/19 1/63/19
f 14/64/20 16/65/20 17/66/20 15/67/20
f 30/68/21 29/69/21 28/70/21
f 18/71/22 16/72/22 1/73/22
f 16/74/23 18/75/23 19/76/23 17/77/23
f 29/78/24 26/79/24 28/80/24
f 20/81/25 18/82/25 1/83/25
f 18/84/26 20/85/26 21/86/26 19/87/26
f 26/88/27 27/89/27 28/90/27
f 22/91/28 20/92/28 1/93/28
f 20/94/29 22/95/29 23/96/29 21/97/29
f 27/98/30 38/99/30 28/100/30
f 24/101/31 22/102/31 1/103/31
f 22/104/32 24/105/32 25/106/32 23/107/32
f 38/108/33 37/109/33 28/110/33
f 2/111/34 24/112/34 1/113/34
f 24/114/35 2/115/35 3/116/35 25/117/35
f 37/118/36 36/119/36 28/120/36
f 27/121/37 26/122/37 19/123/37 21/124/37
f 26/125/38 29/126/38 17/127/38 19/128/38
f 29/129/39 30/130/39 15/131/39 17/132/39
f 30/133/40 31/134/40 13/135/40 15/136/40
f 31/137/41 32/138/41 11/139/41 13/140/41
f 32/141/42 33/142/42 9/143/42 11/144/42
f 33/145/43 34/146/43 7/147/43 9/148/43
f 34/149/44 35/150/44 5/151/44 7/152/44
f 35/153/45 36/154/45 3/155/45 5/156/45
f 36/157/46 37/158/46 25/159/46 3/160/46
f 37/161/47 38/162/47 23/163/47 25/164/47
f 38/165/48 27/166/48 21/167/48 23/168/48
o cabin
v -1.982541115402065e-18 1.1875 -1.982541115402065e-18
v -1.982541115402065e-18 1.5625 -1.982541115402065e-18
v 0.03349364905389031 1.5373797632095823 0.12499999999999997
v 0.05801270189221931 1.46875 0.21650635094610965
v 0.06698729810778065 1.375 0.25
v 0.05801270189221931 1.28125 0.2165063509461097
v 0.03349364905389031 1.2126202367904177 0.12499999999999997
v 0.09150635094610962 1.5373797632095823 0.09150635094610965
v 0.1584936490538903 1.46875 0.15849364905389032
v 0.1830127018922193 1.375 0.18301270189221933
v 0.1584936490538903 1.28125 0.15849364905389032
v 0.09150635094610962 1.2126202367904177 0.09150635094610965
v 0.12499999999999997 1.5373797632095823 0.03349364905389031
v 0.21650635094610965 1.46875 0.058012701892219326
v 0.25 1.375 0.06698729810778066
v 0.2165063509461097 1.28125 0.058012701892219326
v 0.12499999999999997 1.2126202367904177 0.03349364905389031
v 0.12499999999999997 1.5373797632095823 -0.03349364905389034
v 0.21650635094610965 1.46875 -0.05801270189221934
v 0.25 1.375 -0.06698729810778067
v 0.2165063509461097 1.28125 -0.05801270189221934
v 0.12499999999999997 1.2126202367904177 -0.03349364905389034
v 0.09150635094610965 1.5373797632095823 -0.09150635094610962
v 0.1584936490538903 1.46875 -0.15849364905389032
v 0.1830127018922193 1.375 -0.18301270189221933
v 0.1584936490538903 1.28125 -0.15849364905389032
v 0.09150635094610965 1.2126202367904177 -0.09150635094610962
v 0.03349364905389035 1.5373797632095823 -0.12499999999999996
v 0.05801270189221937 1.46875 -0.21650635094610965
v 0.06698729810778073 1.375 -0.24999999999999994
v 0.05801270189221938 1.28125 -0.2165063509461097
v 0.03349364905389035 1.2126202367904177 -0.12499999999999996
v -0.033493649053890275 1.5373797632095823 -0.12499999999999997
v -0.05801270189221923 1.46875 -0.2165063509461097
v -0.06698729810778056 1.375 -0.25
v -0.05801270189221923 1.28125 -0.2165063509461097
v -0.033493649053890275 1.2126202367904177 -0.12499999999999997
v -0.09150635094610962 1.5373797632095823 -0.09150635094610966
v -0.1584936490538903 1.46875 -0.1584936490538904
v -0.1830127018922193 1.375 -0.1830127018922194
v -0.1584936490538903 1.28125 -0.1584936490538904
v -0.09150635094610962 1.2126202367904177 -0.09150635094610966
v -0.12499999999999997 1.5373797632095823 -0.03349364905389031
v -0.2165063509461097 1.46875 -0.058012701892219284
v -0.24999999999999994 1.375 -0.06698729810778062
v -0.2165063509461097 1.28125 -0.0580127018922193
v -0.12499999999999997 1.2126202367904177 -0.03349364905389031
v -0.12499999999999997 1.5373797632095823 0.033493649053890254
v -0.2165063509461097 1.46875 0.058012701892219215
v -0.25 1.375 0.06698729810778055
v -0.2165063509461097 1.28125 0.05801270189221922
v -0.12499999999999997 1.2126202367904177 0.033493649053890254
v -0.09150635094610965 1.5373797632095823 0.09150635094610962
v -0.1584936490538904 1.46875 0.15849364905389032
v -0.1830127018922194 1.375 0.18301270189221933
v -0.1584936490538904 1.28125 0.15849364905389032
v -0.09150635094610965 1.2126202367904177 0.09150635094610962
v -0.03349364905389031 1.5373797632095823 0.12499999999999997
v -0.0580127018922193 1.46875 0.21650635094610965
v -0.06698729810778065 1.375 0.25
v -0.05801270189221931 1.28125 0.2165063509461097
v -0.03349364905389031 1.2126202367904177 0.12499999999999997
vt 0.605922448565878 0.5052586426090848
vt 0.6211978930443329 0.5121229428830577
vt 0.6004950723176034 0.5377651599190961
vt 0.605922448565878 0.5052586426090848
vt 0.612052136065878 0.4766633301090848
vt 0.6385098101933306 0.48855256973271166
vt 0.6211978930443329 0.5121229428830577
vt 0.444190625 0.7916873310977957
vt 0.446434375 0.7667982685977957
vt 0.47938810435136664 0.7727885115727823
vt 0.47272920643677785 0.796875
vt 0.337059375 0.7957017314022043
vt 0.334815625 0.7708126689022043
vt 0.36335420643677785 0.765625
vt 0.37001310435136664 0.7897114884272177
vt 0.6382900391384474 0.882032357480622
vt 0.629574426434122 0.8541163573909152
vt 0.6441591331191604 0.8458856737512034
vt 0.6635513280823785 0.8677764878139296
vt 0.6441591331191604 0.8458856737512034
vt 0.629574426434122 0.8541163573909152
vt 0.621200988934122 0.8222413573909152
vt 0.6211978930443329 0.5121229428830577
vt 0.6323176145304666 0.5246453075294191
vt 0.6029234340648981 0.5395487378501204
vt 0.6211978930443329 0.5121229428830577
vt 0.6385098101933306 0.48855256973271166
vt 0.6577696076992633 0.5102418006801882
vt 0.6323176145304666 0.5246453075294191
vt 0.26164579356322215 0.4375
vt 0.25498689564863336 0.4134135115727823
vt 0.287940625 0.40742326859779565
vt 0.290184375 0.43231233109779565
vt 0.5674868956486333 0.9615864884272177
vt 0.5741457935632222 0.9375
vt 0.602684375 0.9426876689022043
vt 0.600440625 0.9675767314022043
vt 0.6654695220781468 0.8659139609529845
vt 0.6441591331191604 0.8458856737512034
vt 0.6528156446122948 0.8315496132381177
vt 0.680462942432555 0.8410833370152233
vt 0.6528156446122948 0.8315496132381177
vt 0.6441591331191604 0.8458856737512034
vt 0.621200988934122 0.8222413573909152
vt 0.6323176145304666 0.5246453075294191
vt 0.6373275890543411 0.5406252317324857
vt 0.6044073700567667 0.5421709554200025
vt 0.6323176145304666 0.5246453075294191
vt 0.6577696076992633 0.5102418006801882
vt 0.6664470817672989 0.537919661559618
vt 0.6373275890543411 0.5406252317324857
vt 0.290184375 0.43231233109779565
vt 0.287940625 0.40742326859779565
vt 0.321434375 0.40742326859779565
vt 0.319190625 0.43231233109779565
vt 0.600440625 0.9675767314022043
vt 0.602684375 0.9426876689022043
vt 0.6316906250000001 0.9426876689022043
vt 0.6339343749999999 0.9675767314022043
vt 0.6812180939118834 0.838518532781678
vt 0.6528156446122948 0.8315496132381177
vt 0.6533086979323952 0.8148099979292415
vt 0.6820720817672989 0.809524856853895
vt 0.6533086979323952 0.8148099979292415
vt 0.6528156446122948 0.8315496132381177
vt 0.621200988934122 0.8222413573909152
vt 0.6373275890543412 0.5406252317324857
vt 0.6353474339264585 0.5572546276305677
vt 0.604686114184851 0.5451710208730918
vt 0.6373275890543411 0.5406252317324857
vt 0.6664470817672989 0.537919661559618
vt 0.6630173747516231 0.5667224331076675
vt 0.6353474339264585 0.5572546276305677
vt 0.319190625 0.43231233109779565
vt 0.321434375 0.40742326859779565
vt 0.35438810435136664 0.4134135115727823
vt 0.34772920643677785 0.4375
vt 0.6339343749999999 0.9675767314022043
vt 0.6316906250000001 0.9426876689022043
vt 0.6602292064367778 0.9375
vt 0.6668881043513666 0.9615864884272177
vt 0.6814691973834763 0.8069200526514861
vt 0.6533086979323953 0.8148099979292415
vt 0.645510978070983 0.7999892898750167
vt 0.667963238108681 0.78125
vt 0.645510978070983 0.7999892898750167
vt 0.6533086979323952 0.8148099979292415
vt 0.621200988934122 0.8222413573909152
vt 0.619075709580541 0.5620882279918398
vt 0.6040318495708517 0.5694462235255766
vt 0.597549011065878 0.5371336426090847
vt 0.5696658260753812 0.7802234556710902
vt 0.5585207935632222 0.7531854598850999
vt 0.587059375 0.7479977909828955
vt 0.5861426907510645 0.7772283341835968
vt 0.5585207935632222 0.7531854598850999
vt 0.5518618956486334 0.7290989714578822
vt 0.584815625 0.7231087284828955
vt 0.587059375 0.7479977909828955
vt 0.14561189564863336 0.44277602854211784
vt 0.15227079356322215 0.4186895401149001
vt 0.180809375 0.42387720901710446
vt 0.178565625 0.44876627151710446
vt 0.15227079356322215 0.4186895401149001
vt 0.16341582607538122 0.3916515443289098
vt 0.17989269075106454 0.3946466658164032
vt 0.180809375 0.42387720901710446
vt 0.6314359929587368 0.7909144556420584
vt 0.645510978070983 0.7999892898750167
vt 0.621200988934122 0.8222413573909152
vt 0.6040318495708517 0.5694462235255766
vt 0.5873140070412632 0.5684605443579416
vt 0.597549011065878 0.5371336426090847
vt 0.6007254944832195 0.78125
vt 0.5879081787123763 0.7549634752724745
vt 0.6160656250000001 0.7479977909828955
vt 0.6169823092489355 0.7772283341835968
vt 0.587059375 0.7479977909828955
vt 0.584815625 0.7231087284828955
vt 0.6183093749999999 0.7231087284828955
vt 0.6160656250000001 0.7479977909828955
vt 0.178565625 0.44876627151710446
vt 0.180809375 0.42387720901710446
vt 0.209815625 0.42387720901710446
vt 0.212059375 0.44876627151710446
vt 0.18165817871237633 0.41691152472752546
vt 0.19447549448321952 0.390625
vt 0.21073230924893546 0.3946466658164032
vt 0.209815625 0.42387720901710446
vt 0.6147181504291483 0.7899287764744233
vt 0.6314359929587368 0.7909144556420584
vt 0.621200988934122 0.8222413573909152
vt 0.5873140070412632 0.5684605443579416
vt 0.573239021929017 0.5593857101249833
vt 0.597549011065878 0.5371336426090847
vt 0.6169823092489355 0.7772283341835968
vt 0.6160656250000001 0.7479977909828955
vt 0.6446042064367778 0.7531854598850999
vt 0.6334591739246188 0.7802234556710902
vt 0.6160656250000001 0.7479977909828955
vt 0.6183093749999999 0.7231087284828955
vt 0.6512631043513666 0.7290989714578822
vt 0.6446042064367778 0.7531854598850999
vt 0.212059375 0.44876627151710446
vt 0.209815625 0.42387720901710446
vt 0.23835420643677788 0.4186895401149001
vt 0.24501310435136664 0.44277602854211784
vt 0.209815625 0.42387720901710446
vt 0.21073230924893546 0.3946466658164032
vt 0.22720917392461878 0.3916515443289098
vt 0.23835420643677788 0.4186895401149001
vt 0.599674290419459 0.7972867720081601
vt 0.6147181504291483 0.7899287764744233
vt 0.621200988934122 0.8222413573909152
vt 0.573239021929017 0.5593857101249833
vt 0.5654413020676048 0.5445650020707585
vt 0.597549011065878 0.5371336426090847
vt 0.573239021929017 0.5593857101249833
vt 0.550786761891319 0.578125
vt 0.5372808026165237 0.5524549473485139
vt 0.5654413020676048 0.5445650020707585
vt 0.5741457935632222 1
vt 0.5674868956486334 0.9759135115727823
vt 0.600440625 0.9699232685977957
vt 0.602684375 0.9948123310977957
vt 0.5518618956486333 0.7115864884272176
vt 0.5585207935632222 0.6875
vt 0.587059375 0.6926876689022043
vt 0.584815625 0.7175767314022043
vt 0.5557326252483767 0.7926525668923325
vt 0.5834025660735415 0.8021203723694323
vt 0.5814224109456588 0.8187497682675142
vt 0.5523029182327011 0.821455338440382
vt 0.5814224109456588 0.8187497682675142
vt 0.5834025660735415 0.8021203723694323
vt 0.6140638858151489 0.8142039791269082
vt 0.5654413020676048 0.5445650020707585
vt 0.5659343553877051 0.5278253867618823
vt 0.597549011065878 0.5371336426090847
vt 0.5654413020676048 0.5445650020707585
vt 0.5366779182327011 0.5498501431461051
vt 0.5375319060881166 0.520856467218322
vt 0.5659343553877051 0.5278253867618823
vt 0.602684375 0.9948123310977957
vt 0.600440625 0.9699232685977957
vt 0.6339343749999999 0.9699232685977957
vt 0.6316906250000001 0.9948123310977957
vt 0.584815625 0.7175767314022043
vt 0.587059375 0.6926876689022043
vt 0.6160656250000001 0.6926876689022043
vt 0.6183093749999999 0.7175767314022043
vt 0.5523029182327011 0.821455338440382
vt 0.5814224109456588 0.8187497682675142
vt 0.5864323854695334 0.8347296924705809
vt 0.5609803923007367 0.8491331993198118
vt 0.5864323854695334 0.8347296924705809
vt 0.5814224109456588 0.8187497682675142
vt 0.6143426299432332 0.8172040445799975
vt 0.5659343553877051 0.5278253867618823
vt 0.5745908668808395 0.5134893262487965
vt 0.597549011065878 0.5371336426090847
vt 0.5659343553877051 0.5278253867618823
vt 0.538287057567445 0.5182916629847767
vt 0.5532804779218532 0.49346103904701555
vt 0.5745908668808395 0.5134893262487965
vt 0.6316906250000001 0.9948123310977957
vt 0.6339343749999999 0.9699232685977957
vt 0.6668881043513666 0.9759135115727823
vt 0.6602292064367778 1
vt 0.6183093749999999 0.7175767314022043
vt 0.6160656250000001 0.6926876689022043
vt 0.6446042064367778 0.6875
vt 0.6512631043513666 0.7115864884272176
vt 0.5609803923007367 0.8491331993198118
vt 0.5864323854695334 0.8347296924705809
vt 0.597552106955667 0.8472520571169423
vt 0.5802401898066692 0.8708224302672882
vt 0.597552106955667 0.8472520571169423
vt 0.5864323854695334 0.8347296924705809
vt 0.6158265659351018 0.8198262621498795
vt 0.5745908668808396 0.5134893262487965
vt 0.589175573565878 0.5052586426090848
vt 0.597549011065878 0.5371336426090847
vt 0.5745908668808396 0.5134893262487965
vt 0.5551986719176214 0.4915985121860704
vt 0.5804599608615526 0.47734264251937786
vt 0.589175573565878 0.5052586426090848
vt 0.38664579356322215 0.796875
vt 0.37998689564863336 0.7727885115727823
vt 0.412940625 0.7667982685977957
vt 0.415184375 0.7916873310977957
vt 0.27061189564863336 0.7897114884272177
vt 0.27727079356322215 0.765625
vt 0.305809375 0.7708126689022043
vt 0.303565625 0.7957017314022043
vt 0.5802401898066692 0.8708224302672882
vt 0.597552106955667 0.8472520571169423
vt 0.6128275514341219 0.8541163573909152
vt 0.606697863934122 0.8827116698909152
vt 0.6128275514341219 0.8541163573909152
vt 0.597552106955667 0.8472520571169423
vt 0.6182549276823966 0.8216098400809038
vt 0.589175573565878 0.5052586426090848
vt 0.605922448565878 0.5052586426090848
vt 0.597549011065878 0.5371336426090847
vt 0.589175573565878 0.5052586426090848
vt 0.583045886065878 0.4766633301090848
vt 0.612052136065878 0.4766633301090848
vt 0.605922448565878 0.5052586426090848
vt 0.415184375 0.7916873310977957
vt 0.412940625 0.7667982685977957
vt 0.446434375 0.7667982685977957
vt 0.444190625 0.7916873310977957
vt 0.303565625 0.7957017314022043
vt 0.305809375 0.7708126689022043
vt 0.334815625 0.7708126689022043
vt 0.337059375 0.7957017314022043
vt 0.606697863934122 0.8827116698909152
vt 0.6128275514341219 0.8541163573909152
vt 0.629574426434122 0.8541163573909152
vt 0.635704113934122 0.8827116698909152
vt 0.629574426434122 0.8541163573909152
vt 0.6128275514341219 0.8541163573909152
vt 0.621200988934122 0.8222413573909152
vn 0.09851141032558398 0.9803989025609207 0.17062676780917682
vn 0.3000000000000001 0.8 0.519615242270663
vn 0.47085264878493954 0.33643889865594556 0.8155407105738997
vn 0.47085264878494004 -0.33643889865594523 0.8155407105738993
vn 0.29999999999999993 -0.7999999999999999 0.5196152422706634
vn 0.09851141032558398 -0.9803989025609207 0.17062676780917682
vn 0.17062676780917685 0.9803989025609207 0.09851141032558404
vn 0.5196152422706631 0.7999999999999999 0.30000000000000016
vn 0.8155407105738994 0.3364388986559458 0.4708526487849397
vn 0.815540710573899 -0.33643889865594595 0.47085264878494004
vn 0.5196152422706635 -0.7999999999999998 0.3000000000000004
vn 0.17062676780917685 -0.9803989025609207 0.09851141032558404
vn 0.19702282065116802 0.9803989025609207 0
vn 0.5999999999999999 0.8 0
vn 0.9417052975698791 0.3364388986559457 0
vn 0.9417052975698793 -0.33643889865594534 0
vn 0.6000000000000001 -0.8 0
vn 0.19702282065116802 -0.9803989025609207 0
vn 0.17062676780917682 0.9803989025609207 -0.09851141032558403
vn 0.519615242270663 0.8 -0.3000000000000002
vn 0.8155407105738994 0.3364388986559455 -0.47085264878493965
vn 0.8155407105738993 -0.33643889865594523 -0.4708526487849403
vn 0.5196152422706632 -0.7999999999999999 -0.30000000000000004
vn 0.17062676780917682 -0.9803989025609207 -0.09851141032558403
vn 0.09851141032558403 0.9803989025609207 -0.1706267678091768
vn 0.3000000000000002 0.8000000000000002 -0.5196152422706631
vn 0.47085264878493943 0.3364388986559458 -0.8155407105738994
vn 0.4708526487849402 -0.33643889865594595 -0.8155407105738991
vn 0.30000000000000027 -0.7999999999999997 -0.5196152422706635
vn 0.09851141032558405 -0.9803989025609207 -0.17062676780917682
vn 4.0817303810263853e-17 0.9803989025609207 -0.19702282065116805
vn 2.6142427538058977e-16 0.8000000000000002 -0.5999999999999999
vn 3.901869956343739e-16 0.3364388986559452 -0.9417052975698793
vn 0 -0.3364388986559448 -0.9417052975698793
vn 1.1320003182276473e-16 -0.8 -0.6
vn 4.081730381026385e-17 -0.9803989025609207 -0.19702282065116802
vn -0.09851141032558393 0.9803989025609207 -0.1706267678091769
vn -0.29999999999999966 0.8000000000000002 -0.5196152422706631
vn -0.4708526487849389 0.3364388986559452 -0.8155407105739
vn -0.4708526487849393 -0.3364388986559453 -0.8155407105738998
vn -0.2999999999999999 -0.8 -0.5196152422706636
vn -0.09851141032558391 -0.9803989025609207 -0.17062676780917688
vn -0.17062676780917685 0.9803989025609207 -0.09851141032558401
vn -0.5196152422706631 0.8000000000000003 -0.30000000000000004
vn -0.8155407105738997 0.3364388986559457 -0.470852648784939
vn -0.8155407105738993 -0.33643889865594595 -0.4708526487849397
vn -0.5196152422706635 -0.7999999999999997 -0.30000000000000016
vn -0.17062676780917685 -0.9803989025609207 -0.09851141032558401
vn -0.19702282065116805 0.9803989025609208 0
vn -0.5999999999999998 0.8000000000000002 0
vn -0.9417052975698793 0.33643889865594473 -3.9018699563437427e-16
vn -0.9417052975698793 -0.3364388986559448 0
vn -0.6000000000000001 -0.8 0
vn -0.19702282065116805 -0.9803989025609208 0
vn -0.1706267678091769 0.9803989025609207 0.09851141032558394
vn -0.5196152422706631 0.8000000000000003 0.2999999999999996
vn -0.8155407105739001 0.33643889865594523 0.47085264878493877
vn -0.8155407105738998 -0.33643889865594523 0.47085264878493915
vn -0.5196152422706635 -0.7999999999999999 0.2999999999999997
vn -0.17062676780917688 -0.9803989025609207 0.09851141032558393
vn -0.09851141032558404 0.9803989025609207 0.17062676780917685
vn -0.29999999999999977 0.8000000000000003 0.5196152422706631
vn -0.4708526487849392 0.33643889865594573 0.8155407105738998
vn -0.4708526487849395 -0.3364388986559459 0.8155407105738993
vn -0.3000000000000001 -0.7999999999999998 0.5196152422706634
vn -0.09851141032558404 -0.9803989025609207 0.17062676780917685
vn 0 0.9803989025609207 0.19702282065116802
vn 0 0.8 0.6
vn 0 0.3364388986559457 0.941705297569879
vn 0 -0.3364388986559453 0.9417052975698793
vn 0 -0.8 0.6000000000000002
vn 0 -0.9803989025609207 0.19702282065116802
usemtl m_089595f9-e365-0ef3-e8d0-cd71ecd6bee1
f 41/169/49 46/170/49 40/171/49
f 41/172/50 42/173/50 47/174/50 46/175/50
f 42/176/51 43/177/51 48/178/51 47/179/51
f 43/180/52 44/181/52 49/182/52 48/183/52
f 44/184/53 45/185/53 50/186/53 49/187/53
f 50/188/54 45/189/54 39/190/54
f 46/191/55 51/192/55 40/193/55
f 46/194/56 47/195/56 52/196/56 51/197/56
f 47/198/57 48/199/57 53/200/57 52/201/57
f 48/202/58 49/203/58 54/204/58 53/205/58
f 49/206/59 50/207/59 55/208/59 54/209/59
f 55/210/60 50/211/60 39/212/60
f 51/213/61 56/214/61 40/215/61
f 51/216/62 52/217/62 57/218/62 56/219/62
f 52/220/63 53/221/63 58/222/63 57/223/63
f 53/224/64 54/225/64 59/226/64 58/227/64
f 54/228/65 55/229/65 60/230/65 59/231/65
f 60/232/66 55/233/66 39/234/66
f 56/235/67 61/236/67 40/237/67
f 56/238/68 57/239/68 62/240/68 61/241/68
f 57/242/69 58/243/69 63/244/69 62/245/69
f 58/246/70 59/247/70 64/248/70 63/249/70
f 59/250/71 60/251/71 65/252/71 64/253/71
f 65/254/72 60/255/72 39/256/72
f 61/257/73 66/258/73 40/259/73
f 61/260/74 62/261/74 67/262/74 66/263/74
f 62/264/75 63/265/75 68/266/75 67/267/75
f 63/268/76 64/269/76 69/270/76 68/271/76
f 64/272/77 65/273/77 70/274/77 69/275/77
f 70/276/78 65/277/78 39/278/78
f 66/279/79 71/280/79 40/281/79
f 66/282/80 67/283/80 72/284/80 71/285/80
f 67/286/81 68/287/81 73/288/81 72/289/81
f 68/290/82 69/291/82 74/292/82 73/293/82
f 69/294/83 70/295/83 75/296/83 74/297/83
f 75/298/84 70/299/84 39/300/84
f 71/301/85 76/302/85 40/303/85
f 71/304/86 72/305/86 77/306/86 76/307/86
f 72/308/87 73/309/87 78/310/87 77/311/87
f 73/312/88 74/313/88 79/314/88 78/315/88
f 74/316/89 75/317/89 80/318/89 79/319/89
f 80/320/90 75/321/90 39/322/90
f 76/323/91 81/324/91 40/325/91
f 76/326/92 77/327/92 82/328/92 81/329/92
f 77/330/93 78/331/93 83/332/93 82/333/93
f 78/334/94 79/335/94 84/336/94 83/337/94
f 79/338/95 80/339/95 85/340/95 84/341/95
f 85/342/96 80/343/96 39/344/96
f 81/345/97 86/346/97 40/347/97
f 81/348/98 82/349/98 87/350/98 86/351/98
f 82/352/99 83/353/99 88/354/99 87/355/99
f 83/356/100 84/357/100 89/358/100 88/359/100
f 84/360/101 85/361/101 90/362/101 89/363/101
f 90/364/102 85/365/102 39/366/102
f 86/367/103 91/368/103 40/369/103
f 86/370/104 87/371/104 92/372/104 91/373/104
f 87/374/105 88/375/105 93/376/105 92/377/105
f 88/378/106 89/379/106 94/380/106 93/381/106
f 89/382/107 90/383/107 95/384/107 94/385/107
f 95/386/108 90/387/108 39/388/108
f 91/389/109 96/390/109 40/391/109
f 91/392/110 92/393/110 97/394/110 96/395/110
f 92/396/111 93/397/111 98/398/111 97/399/111
f 93/400/112 94/401/112 99/402/112 98/403/112
f 94/404/113 95/405/113 100/406/113 99/407/113
f 100/408/114 95/409/114 39/410/114
f 96/411/115 41/412/115 40/413/115
f 96/414/116 97/415/116 42/416/116 41/417/116
f 97/418/117 98/419/117 43/420/117 42/421/117
f 98/422/118 99/423/118 44/424/118 43/425/118
f 99/426/119 100/427/119 45/428/119 44/429/119
f 45/430/120 100/431/120 39/432/120
o orb_1
v -0.28125 1 -2.0816681711721685e-17
v -0.28125 1.25 -2.0816681711721685e-17
v -0.26450317547305485 1.233253175473055 0.062499999999999965
v -0.25224364905389035 1.1875 0.1082531754730548
v -0.2477563509461097 1.125 0.12499999999999997
v -0.25224364905389035 1.0625 0.10825317547305482
v -0.26450317547305485 1.016746824526945 0.062499999999999965
v -0.2354968245269452 1.233253175473055 0.0457531754730548
v -0.20200317547305485 1.1875 0.07924682452694515
v -0.18974364905389038 1.125 0.09150635094610965
v -0.20200317547305485 1.0625 0.07924682452694515
v -0.2354968245269452 1.016746824526945 0.0457531754730548
v -0.21875000000000003 1.233253175473055 0.01674682452694514
v -0.1729968245269452 1.1875 0.029006350946109635
v -0.15625000000000003 1.125 0.03349364905389031
v -0.17299682452694518 1.0625 0.02900635094610964
v -0.21875000000000003 1.016746824526945 0.01674682452694514
v -0.21875000000000003 1.233253175473055 -0.01674682452694519
v -0.1729968245269452 1.1875 -0.02900635094610969
v -0.15625000000000003 1.125 -0.033493649053890365
v -0.17299682452694518 1.0625 -0.029006350946109694
v -0.21875000000000003 1.016746824526945 -0.01674682452694519
v -0.2354968245269452 1.233253175473055 -0.04575317547305483
v -0.20200317547305485 1.1875 -0.07924682452694518
v -0.18974364905389035 1.125 -0.09150635094610968
v -0.20200317547305485 1.0625 -0.07924682452694518
v -0.2354968245269452 1.016746824526945 -0.04575317547305483
v -0.26450317547305485 1.233253175473055 -0.06249999999999999
v -0.25224364905389035 1.1875 -0.10825317547305482
v -0.24775635094610965 1.125 -0.125
v -0.25224364905389035 1.0625 -0.10825317547305485
v -0.26450317547305485 1.016746824526945 -0.06249999999999999
v -0.29799682452694515 1.233253175473055 -0.06250000000000001
v -0.31025635094610965 1.1875 -0.10825317547305485
v -0.3147436490538903 1.125 -0.12500000000000003
v -0.31025635094610965 1.0625 -0.10825317547305488
v -0.29799682452694515 1.016746824526945 -0.06250000000000001
v -0.3270031754730548 1.233253175473055 -0.045753175473054845
v -0.3604968245269452 1.1875 -0.0792468245269452
v -0.3727563509461097 1.125 -0.0915063509461097
v -0.3604968245269452 1.0625 -0.0792468245269452
v -0.3270031754730548 1.016746824526945 -0.045753175473054845
v -0.34375 1.233253175473055 -0.016746824526945175
v -0.38950317547305485 1.1875 -0.029006350946109666
v -0.40625 1.125 -0.03349364905389034
v -0.38950317547305485 1.0625 -0.02900635094610967
v -0.34375 1.016746824526945 -0.016746824526945175
v -0.34375 1.233253175473055 0.016746824526945113
v -0.38950317547305485 1.1875 0.029006350946109587
v -0.40625 1.125 0.033493649053890254
v -0.3895031754730549 1.0625 0.02900635094610959
v -0.34375 1.016746824526945 0.016746824526945113
v -0.32700317547305485 1.233253175473055 0.04575317547305478
v -0.3604968245269452 1.1875 0.07924682452694512
v -0.3727563509461097 1.125 0.09150635094610962
v -0.3604968245269452 1.0625 0.07924682452694512
v -0.32700317547305485 1.016746824526945 0.04575317547305478
v -0.2979968245269452 1.233253175473055 0.062499999999999965
v -0.3102563509461097 1.1875 0.1082531754730548
v -0.31474364905389035 1.125 0.12499999999999997
v -0.3102563509461097 1.0625 0.10825317547305482
v -0.2979968245269452 1.016746824526945 0.062499999999999965
vt 0.04320640433165226 0.5454309001092186
vt 0.050997681330274984 0.5484942795741816
vt 0.041183397026316786 0.5620158372268704
vt 0.04320640433165226 0.5454309001092186
vt 0.046272029331652254 0.5292559001092185
vt 0.059769347939568666 0.534562784803841
vt 0.050997681330274984 0.5484942795741816
vt 0.04296757822957836 0.4879420217508613
vt 0.0396234375 0.47207677825142524
vt 0.05620995845377494 0.46976482130640873
vt 0.05733183345377495 0.4859398213064088
vt 0.0396234375 0.47207677825142524
vt 0.0385015625 0.4559017782514252
vt 0.05286581772419659 0.45389957780697265
vt 0.05620995845377494 0.46976482130640873
vt 0.0385015625 0.4559017782514252
vt 0.039304825778269825 0.43945843766180026
vt 0.04759653871634839 0.43830267489716146
vt 0.05286581772419659 0.45389957780697265
vt 0.3630693278309145 0.4817579601765697
vt 0.3557484375 0.4858190998907814
vt 0.3515625 0.4696440998907814
vt 0.050997681330274984 0.5484942795741816
vt 0.0571276944423807 0.5541961415736549
vt 0.043046324426352665 0.5631887894721113
vt 0.050997681330274984 0.5484942795741816
vt 0.059769347939568666 0.534562784803841
vt 0.07038875475303735 0.5444404785476094
vt 0.0571276944423807 0.5541961415736549
vt 0.23954316654622507 0.4859398213064088
vt 0.24066504154622506 0.46976482130640873
vt 0.2572515625 0.47207677825142524
vt 0.25390742177042164 0.4879420217508613
vt 0.24066504154622506 0.46976482130640873
vt 0.24400918227580343 0.45389957780697265
vt 0.2583734375 0.4559017782514252
vt 0.2572515625 0.47207677825142524
vt 0.37516921454438634 0.4929213567547519
vt 0.3630693278309145 0.4817579601765697
vt 0.36750114023362346 0.47465533180090336
vt 0.3828467215846896 0.4806170274186313
vt 0.36750114023362346 0.47465533180090336
vt 0.3630693278309145 0.4817579601765697
vt 0.3515625 0.4696440998907814
vt 0.0571276944423807 0.5541961415736549
vt 0.059722226194201915 0.5621558335277708
vt 0.043046324426352665 0.5631887894721113
vt 0.0348765625 1
vt 0.0318109375 0.984375
vt 0.0463140625 0.984375
vt 0.0432484375 1
vt 0.2633922729315069 0.49190807985132134
vt 0.25788990785286253 0.47665641741547715
vt 0.27399843749999997 0.47207677825142524
vt 0.27734257822957836 0.4879420217508613
vt 0.2572515625 0.47207677825142524
vt 0.2583734375 0.4559017782514252
vt 0.27287656250000003 0.4559017782514252
vt 0.27399843749999997 0.47207677825142524
vt 0.2587758513621838 0.45250905365701877
vt 0.26554024268449483 0.4375
vt 0.2736798257782698 0.43945843766180026
vt 0.27287656250000003 0.4559017782514252
vt 0.36793115697368634 0.4662945078810441
vt 0.36750114023362346 0.47465533180090336
vt 0.3515625 0.4696440998907814
vt 0.059722226194201915 0.5621558335277708
vt 0.05812985427123449 0.5703748749971009
vt 0.04304632442635267 0.5631887894721113
vt 0.4090774757960059 0.453125
vt 0.39581641548534924 0.44336933697395453
vt 0.4064358222988179 0.4334916432301862
vt 0.4152074889081116 0.4474231380005268
vt 0.27734257822957836 0.4879420217508613
vt 0.27399843749999997 0.47207677825142524
vt 0.29058495845377497 0.46976482130640873
vt 0.29170683345377496 0.4859398213064088
vt 0.27399843749999997 0.47207677825142524
vt 0.27287656250000003 0.4559017782514252
vt 0.2872408177241966 0.45389957780697265
vt 0.29058495845377497 0.46976482130640873
vt 0.27287656250000003 0.4559017782514252
vt 0.2736798257782698 0.43945843766180026
vt 0.2819715387163484 0.43830267489716146
vt 0.2872408177241966 0.45389957780697265
vt 0.3642514115558421 0.45877468310413083
vt 0.36793115697368634 0.4662945078810441
vt 0.3515625 0.4696440998907814
vt 0.0492237767810434 0.5748363635867602
vt 0.04152487026406723 0.578125
vt 0.03902046683165225 0.5616059001092186
vt 0.4152074889081116 0.4474231380005268
vt 0.4064358222988179 0.4334916432301862
vt 0.41993314090673434 0.4281847585355637
vt 0.42299876590673435 0.44435975853556364
vt 0.5051681665462251 0.9859398213064088
vt 0.506290041546225 0.9697648213064087
vt 0.5228765625 0.9720767782514252
vt 0.5195324217704217 0.9879420217508613
vt 0.506290041546225 0.9697648213064087
vt 0.5096341822758034 0.9538995778069727
vt 0.5239984375 0.9559017782514252
vt 0.5228765625 0.9720767782514252
vt 0.5096341822758034 0.9538995778069727
vt 0.5149034612836516 0.9383026748971615
vt 0.5231951742217301 0.9394584376618003
vt 0.5239984375 0.9559017782514252
vt 0.3573857964224152 0.4539838982148581
vt 0.3642514115558421 0.45877468310413083
vt 0.3515625 0.4696440998907814
vt 0.04152487026406723 0.578125
vt 0.033197170409237045 0.5772661017851419
vt 0.03902046683165225 0.5616059001092186
vt 0.42299876590673435 0.44435975853556364
vt 0.41993314090673434 0.4281847585355637
vt 0.43443626590673434 0.4281847585355637
vt 0.4313706409067343 0.44435975853556364
vt 0.5290172729315069 0.9919080798513213
vt 0.5235149078528625 0.9766564174154772
vt 0.5396234375 0.9720767782514252
vt 0.5429675782295784 0.9879420217508613
vt 0.5228765625 0.9720767782514252
vt 0.5239984375 0.9559017782514252
vt 0.5385015625 0.9559017782514252
vt 0.5396234375 0.9720767782514252
vt 0.5244008513621838 0.9525090536570188
vt 0.5311652426844948 0.9375
vt 0.5393048257782698 0.9394584376618003
vt 0.5385015625 0.9559017782514252
vt 0.349058096567585 0.453125
vt 0.3573857964224152 0.4539838982148581
vt 0.3515625 0.4696440998907814
vt 0.033197170409237045 0.5772661017851419
vt 0.02633155527581011 0.5724753168958692
vt 0.03902046683165225 0.5616059001092186
vt 0.4313706409067343 0.44435975853556364
vt 0.43443626590673434 0.4281847585355637
vt 0.44793358451465076 0.4334916432301862
vt 0.4391619179053571 0.4474231380005268
vt 0.5429675782295784 0.9879420217508613
vt 0.5396234375 0.9720767782514252
vt 0.556209958453775 0.9697648213064087
vt 0.5573318334537749 0.9859398213064088
vt 0.5396234375 0.9720767782514252
vt 0.5385015625 0.9559017782514252
vt 0.5528658177241966 0.9538995778069727
vt 0.556209958453775 0.9697648213064087
vt 0.5385015625 0.9559017782514252
vt 0.5393048257782698 0.9394584376618003
vt 0.5475965387163484 0.9383026748971615
vt 0.5528658177241966 0.9538995778069727
vt 0.3388735884441579 0.45877468310413083
vt 0.3457392035775848 0.4539838982148581
vt 0.3515625 0.4696440998907814
vt 0.02633155527581011 0.5724753168958692
vt 0.022651809857965916 0.5649554921189559
vt 0.03902046683165225 0.5616059001092186
vt 0.5149034612836516 0.7023223251028385
vt 0.5096341822758034 0.6867254221930273
vt 0.5239984375 0.6847232217485748
vt 0.5231951742217302 0.7011665623381997
vt 0.5096341822758034 0.6867254221930273
vt 0.506290041546225 0.6708601786935913
vt 0.5228765625 0.6685482217485748
vt 0.5239984375 0.6847232217485748
vt 0.506290041546225 0.6708601786935913
vt 0.5051681665462251 0.6546851786935912
vt 0.5195324217704217 0.6526829782491387
vt 0.5228765625 0.6685482217485748
vt 0.4078747781960418 0.4826814947703406
vt 0.41664644480533547 0.46875
vt 0.4244377218039582 0.47181337946496305
vt 0.4213720968039582 0.4879883794649631
vt 0.33519384302631366 0.4662945078810441
vt 0.3388735884441579 0.45877468310413083
vt 0.3515625 0.4696440998907814
vt 0.022651809857965916 0.5649554921189559
vt 0.023081826598028772 0.5565946681990965
vt 0.039020466831652265 0.5616059001092186
vt 0.5231951742217302 0.7011665623381997
vt 0.5239984375 0.6847232217485748
vt 0.5380991486378163 0.6881159463429813
vt 0.5313347573155052 0.703125
vt 0.5239984375 0.6847232217485748
vt 0.5228765625 0.6685482217485748
vt 0.5396234375 0.6685482217485748
vt 0.5385015625 0.6847232217485748
vt 0.5235149078528626 0.6639685825845228
vt 0.5290172729315069 0.6487169201486787
vt 0.5429675782295784 0.6526829782491387
vt 0.5396234375 0.6685482217485748
vt 0.4213720968039582 0.4879883794649631
vt 0.4244377218039582 0.47181337946496305
vt 0.4328095968039582 0.47181337946496305
vt 0.4358752218039582 0.4879883794649631
vt 0.33562385976637654 0.47465533180090336
vt 0.33519384302631366 0.4662945078810441
vt 0.3515625 0.4696440998907814
vt 0.023081826598028772 0.5565946681990965
vt 0.02751363900073777 0.5494920398234303
vt 0.03902046683165226 0.5616059001092186
vt 0.023081826598028772 0.5565946681990965
vt 0.0077362452469626475 0.5506329725813687
vt 0.015413752287265919 0.5383286432452481
vt 0.02751363900073777 0.5494920398234303
vt 0.5385015625 0.6847232217485748
vt 0.5396234375 0.6685482217485748
vt 0.556209958453775 0.6708601786935913
vt 0.5528658177241966 0.6867254221930273
vt 0.5396234375 0.6685482217485748
vt 0.5429675782295784 0.6526829782491387
vt 0.5573318334537749 0.6546851786935912
vt 0.556209958453775 0.6708601786935913
vt 0.3202782784153104 0.4806170274186313
vt 0.33562385976637654 0.47465533180090336
vt 0.3400556721690855 0.4817579601765697
vt 0.32795578545561366 0.4929213567547519
vt 0.3400556721690855 0.4817579601765697
vt 0.33562385976637654 0.47465533180090336
vt 0.3515625 0.4696440998907814
vt 0.02751363900073777 0.5494920398234303
vt 0.03483452933165226 0.5454309001092186
vt 0.03902046683165226 0.5616059001092186
vt 0.02751363900073777 0.5494920398234303
vt 0.01698648238431856 0.5368347235512498
vt 0.02966892061715698 0.5297993560956109
vt 0.03483452933165226 0.5454309001092186
vt 0.005168166546225057 0.4859398213064088
vt 0.0062900415462250545 0.46976482130640873
vt 0.022876562499999996 0.47207677825142524
vt 0.01953242177042164 0.4879420217508613
vt 0.0062900415462250545 0.46976482130640873
vt 0.009634182275803413 0.45389957780697265
vt 0.0239984375 0.4559017782514252
vt 0.0228765625 0.47207677825142524
vt 0.009634182275803413 0.45389957780697265
vt 0.014903461283651595 0.43830267489716146
vt 0.023195174221730168 0.43945843766180026
vt 0.023998437499999997 0.4559017782514252
vt 0.3473765625 0.4858190998907814
vt 0.3400556721690855 0.4817579601765697
vt 0.3515625 0.4696440998907814
vt 0.03483452933165226 0.5454309001092186
vt 0.04320640433165226 0.5454309001092186
vt 0.03902046683165226 0.5616059001092186
vt 0.03483452933165226 0.5454309001092186
vt 0.03176890433165226 0.5292559001092185
vt 0.046272029331652254 0.5292559001092185
vt 0.04320640433165226 0.5454309001092186
vt 0.029017272931506893 0.49190807985132134
vt 0.023514907852862532 0.47665641741547715
vt 0.0396234375 0.47207677825142524
vt 0.04296757822957836 0.4879420217508613
vt 0.0228765625 0.47207677825142524
vt 0.0239984375 0.4559017782514252
vt 0.0385015625 0.4559017782514252
vt 0.0396234375 0.47207677825142524
vt 0.024400851362183784 0.45250905365701877
vt 0.031165242684494852 0.4375
vt 0.039304825778269825 0.43945843766180026
vt 0.0385015625 0.4559017782514252
vt 0.3557484375 0.4858190998907814
vt 0.3473765625 0.4858190998907814
vt 0.3515625 0.4696440998907814
vn 0.1294095225512605 0.9659258262890683 0.22414386804201353
vn 0.3535533905932736 0.7071067811865478 0.6123724356957945
vn 0.48296291314453405 0.25881904510252085 0.8365163037378079
vn 0.4829629131445343 -0.2588190451025205 0.8365163037378078
vn 0.35355339059327395 -0.7071067811865476 0.6123724356957945
vn 0.12940952255126048 -0.9659258262890683 0.22414386804201347
vn 0.22414386804201347 0.9659258262890683 0.1294095225512605
vn 0.6123724356957945 0.7071067811865479 0.35355339059327345
vn 0.836516303737808 0.25881904510252063 0.48296291314453427
vn 0.8365163037378078 -0.2588190451025207 0.48296291314453427
vn 0.6123724356957944 -0.7071067811865476 0.3535533905932739
vn 0.22414386804201347 -0.9659258262890683 0.1294095225512605
vn 0.25881904510252096 0.9659258262890683 0
vn 0.7071067811865474 0.7071067811865477 0
vn 0.9659258262890683 0.2588190451025209 0
vn 0.9659258262890683 -0.2588190451025205 0
vn 0.7071067811865475 -0.7071067811865476 0
vn 0.25881904510252096 -0.9659258262890683 0
vn 0.22414386804201347 0.9659258262890683 -0.1294095225512605
vn 0.6123724356957944 0.7071067811865477 -0.3535533905932737
vn 0.8365163037378079 0.25881904510252085 -0.48296291314453405
vn 0.8365163037378077 -0.2588190451025205 -0.4829629131445346
vn 0.6123724356957944 -0.7071067811865476 -0.35355339059327395
vn 0.22414386804201347 -0.9659258262890683 -0.1294095225512605
vn 0.1294095225512605 0.9659258262890683 -0.2241438680420135
vn 0.3535533905932737 0.7071067811865478 -0.6123724356957944
vn 0.48296291314453416 0.25881904510252096 -0.836516303737808
vn 0.48296291314453454 -0.2588190451025211 -0.8365163037378076
vn 0.35355339059327384 -0.7071067811865475 -0.6123724356957945
vn 0.1294095225512605 -0.9659258262890683 -0.2241438680420135
vn 1.608589638639306e-16 0.9659258262890683 -0.25881904510252096
vn 3.466028960407397e-16 0.7071067811865478 -0.7071067811865472
vn 4.0022255066204985e-16 0.2588190451025209 -0.9659258262890683
vn 4.621371947209864e-16 -0.25881904510252063 -0.9659258262890684
vn 4.002225506620496e-16 -0.7071067811865476 -0.7071067811865476
vn 1.6085896386393065e-16 -0.9659258262890683 -0.25881904510252096
vn -0.12940952255126048 0.9659258262890683 -0.22414386804201358
vn -0.35355339059327345 0.7071067811865477 -0.6123724356957946
vn -0.4829629131445337 0.2588190451025208 -0.8365163037378084
vn -0.48296291314453416 -0.25881904510252046 -0.836516303737808
vn -0.3535533905932737 -0.7071067811865476 -0.6123724356957946
vn -0.12940952255126048 -0.9659258262890683 -0.22414386804201358
vn -0.2241438680420136 0.9659258262890683 -0.1294095225512605
vn -0.6123724356957944 0.7071067811865479 -0.3535533905932737
vn -0.8365163037378082 0.25881904510252085 -0.48296291314453366
vn -0.8365163037378079 -0.25881904510252113 -0.4829629131445343
vn -0.6123724356957946 -0.7071067811865476 -0.35355339059327384
vn -0.2241438680420136 -0.9659258262890683 -0.1294095225512605
vn -0.25881904510252096 0.9659258262890683 0
vn -0.7071067811865472 0.7071067811865478 0
vn -0.9659258262890683 0.2588190451025205 -4.0022255066205014e-16
vn -0.9659258262890684 -0.25881904510252063 -4.621371947209867e-16
vn -0.7071067811865476 -0.7071067811865476 0
vn -0.25881904510252096 -0.9659258262890683 0
vn -0.2241438680420137 0.9659258262890683 0.12940952255126034
vn -0.6123724356957946 0.7071067811865479 0.3535533905932734
vn -0.8365163037378082 0.25881904510252085 0.48296291314453377
vn -0.8365163037378079 -0.25881904510252046 0.48296291314453427
vn -0.6123724356957947 -0.7071067811865477 0.35355339059327323
vn -0.22414386804201367 -0.9659258262890683 0.12940952255126031
vn -0.1294095225512605 0.9659258262890683 0.22414386804201358
vn -0.3535533905932737 0.7071067811865477 0.6123724356957944
vn -0.4829629131445341 0.2588190451025209 0.8365163037378079
vn -0.48296291314453466 -0.25881904510252113 0.8365163037378077
vn -0.3535533905932739 -0.7071067811865474 0.6123724356957946
vn -0.1294095225512605 -0.9659258262890683 0.22414386804201358
vn 0 0.9659258262890683 0.25881904510252096
vn 0 0.7071067811865477 0.7071067811865474
vn 0 0.2588190451025209 0.9659258262890683
vn 0 -0.2588190451025206 0.9659258262890684
vn 0 -0.7071067811865476 0.7071067811865475
vn 0 -0.9659258262890683 0.25881904510252096
usemtl m_089595f9-e365-0ef3-e8d0-cd71ecd6bee1
f 103/433/121 108/434/121 102/435/121
f 103/436/122 104/437/122 109/438/122 108/439/122
f 104/440/123 105/441/123 110/442/123 109/443/123
f 105/444/124 106/445/124 111/446/124 110/447/124
f 106/448/125 107/449/125 112/450/125 111/451/125
f 112/452/126 107/453/126 101/454/126
f 108/455/127 113/456/127 102/457/127
f 108/458/128 109/459/128 114/460/128 113/461/128
f 109/462/129 110/463/129 115/464/129 114/465/129
f 110/466/130 111/467/130 116/468/130 115/469/130
f 111/470/131 112/471/131 117/472/131 116/473/131
f 117/474/132 112/475/132 101/476/132
f 113/477/133 118/478/133 102/479/133
f 113/480/134 114/481/134 119/482/134 118/483/134
f 114/484/135 115/485/135 120/486/135 119/487/135
f 115/488/136 116/489/136 121/490/136 120/491/136
f 116/492/137 117/493/137 122/494/137 121/495/137
f 122/496/138 117/497/138 101/498/138
f 118/499/139 123/500/139 102/501/139
f 118/502/140 119/503/140 124/504/140 123/505/140
f 119/506/141 120/507/141 125/508/141 124/509/141
f 120/510/142 121/511/142 126/512/142 125/513/142
f 121/514/143 122/515/143 127/516/143 126/517/143
f 127/518/144 122/519/144 101/520/144
f 123/521/145 128/522/145 102/523/145
f 123/524/146 124/525/146 129/526/146 128/527/146
f 124/528/147 125/529/147 130/530/147 129/531/147
f 125/532/148 126/533/148 131/534/148 130/535/148
f 126/536/149 127/537/149 132/538/149 131/539/149
f 132/540/150 127/541/150 101/542/150
f 128/543/151 133/544/151 102/545/151
f 128/546/152 129/547/152 134/548/152 133/549/152
f 129/550/153 130/551/153 135/552/153 134/553/153
f 130/554/154 131/555/154 136/556/154 135/557/154
f 131/558/155 132/559/155 137/560/155 136/561/155
f 137/562/156 132/563/156 101/564/156
f 133/565/157 138/566/157 102/567/157
f 133/568/158 134/569/158 139/570/158 138/571/158
f 134/572/159 135/573/159 140/574/159 139/575/159
f 135/576/160 136/577/160 141/578/160 140/579/160
f 136/580/161 137/581/161 142/582/161 141/583/161
f 142/584/162 137/585/162 101/586/162
f 138/587/163 143/588/163 102/589/163
f 138/590/164 139/591/164 144/592/164 143/593/164
f 139/594/165 140/595/165 145/596/165 144/597/165
f 140/598/166 141/599/166 146/600/166 145/601/166
f 141/602/167 142/603/167 147/604/167 146/605/167
f 147/606/168 142/607/168 101/608/168
f 143/609/169 148/610/169 102/611/169
f 143/612/170 144/613/170 149/614/170 148/615/170
f 144/616/171 145/617/171 150/618/171 149/619/171
f 145/620/172 146/621/172 151/622/172 150/623/172
f 146/624/173 147/625/173 152/626/173 151/627/173
f 152/628/174 147/629/174 101/630/174
f 148/631/175 153/632/175 102/633/175
f 148/634/176 149/635/176 154/636/176 153/637/176
f 149/638/177 150/639/177 155/640/177 154/641/177
f 150/642/178 151/643/178 156/644/178 155/645/178
f 151/646/179 152/647/179 157/648/179 156/649/179
f 157/650/180 152/651/180 101/652/180
f 153/653/181 158/654/181 102/655/181
f 153/656/182 154/657/182 159/658/182 158/659/182
f 154/660/183 155/661/183 160/662/183 159/663/183
f 155/664/184 156/665/184 161/666/184 160/667/184
f 156/668/185 157/669/185 162/670/185 161/671/185
f 162/672/186 157/673/186 101/674/186
f 158/675/187 103/676/187 102/677/187
f 158/678/188 159/679/188 104/680/188 103/681/188
f 159/682/189 160/683/189 105/684/189 104/685/189
f 160/686/190 161/687/190 106/688/190 105/689/190
f 161/690/191 162/691/191 107/692/191 106/693/191
f 107/694/192 162/695/192 101/696/192
o orb_2
v 0.15625 1 -0.25
v 0.15625 1.25 -0.25
v 0.17299682452694515 1.233253175473055 -0.18750000000000003
v 0.18525635094610965 1.1875 -0.1417468245269452
v 0.1897436490538903 1.125 -0.12500000000000003
v 0.18525635094610965 1.0625 -0.14174682452694518
v 0.17299682452694515 1.016746824526945 -0.18750000000000003
v 0.2020031754730548 1.233253175473055 -0.2042468245269452
v 0.2354968245269451 1.1875 -0.17075317547305485
v 0.2477563509461096 1.125 -0.15849364905389035
v 0.2354968245269451 1.0625 -0.17075317547305485
v 0.2020031754730548 1.016746824526945 -0.2042468245269452
v 0.21875 1.233253175473055 -0.23325317547305485
v 0.2645031754730548 1.1875 -0.22099364905389035
v 0.28125 1.125 -0.2165063509461097
v 0.2645031754730548 1.0625 -0.22099364905389035
v 0.21875 1.016746824526945 -0.23325317547305485
v 0.21875 1.233253175473055 -0.2667468245269452
v 0.2645031754730548 1.1875 -0.2790063509461097
v 0.28125 1.125 -0.28349364905389035
v 0.2645031754730548 1.0625 -0.2790063509461097
v 0.21875 1.016746824526945 -0.2667468245269452
v 0.2020031754730548 1.233253175473055 -0.2957531754730548
v 0.2354968245269451 1.1875 -0.3292468245269452
v 0.2477563509461096 1.125 -0.3415063509461097
v 0.2354968245269451 1.0625 -0.3292468245269452
v 0.2020031754730548 1.016746824526945 -0.2957531754730548
v 0.17299682452694515 1.233253175473055 -0.3125
v 0.18525635094610965 1.1875 -0.3582531754730548
v 0.18974364905389035 1.125 -0.375
v 0.1852563509461097 1.0625 -0.35825317547305485
v 0.17299682452694515 1.016746824526945 -0.3125
v 0.13950317547305485 1.233253175473055 -0.3125
v 0.12724364905389035 1.1875 -0.35825317547305485
v 0.1227563509461097 1.125 -0.375
v 0.12724364905389035 1.0625 -0.3582531754730549
v 0.13950317547305485 1.016746824526945 -0.3125
v 0.1104968245269452 1.233253175473055 -0.29575317547305485
v 0.0770031754730548 1.1875 -0.3292468245269452
v 0.0647436490538903 1.125 -0.3415063509461097
v 0.0770031754730548 1.0625 -0.3292468245269452
v 0.1104968245269452 1.016746824526945 -0.29575317547305485
v 0.09375 1.233253175473055 -0.2667468245269452
v 0.04799682452694515 1.1875 -0.27900635094610965
v 0.03125 1.125 -0.28349364905389035
v 0.04799682452694515 1.0625 -0.2790063509461097
v 0.09375 1.016746824526945 -0.2667468245269452
v 0.09375 1.233253175473055 -0.23325317547305488
v 0.04799682452694515 1.1875 -0.2209936490538904
v 0.03125 1.125 -0.21650635094610976
v 0.04799682452694509 1.0625 -0.2209936490538904
v 0.09375 1.016746824526945 -0.23325317547305488
v 0.11049682452694515 1.233253175473055 -0.2042468245269452
v 0.0770031754730548 1.1875 -0.17075317547305488
v 0.0647436490538903 1.125 -0.15849364905389038
v 0.0770031754730548 1.0625 -0.17075317547305488
v 0.11049682452694515 1.016746824526945 -0.2042468245269452
v 0.1395031754730548 1.233253175473055 -0.18750000000000003
v 0.1272436490538903 1.1875 -0.1417468245269452
v 0.12275635094610965 1.125 -0.12500000000000003
v 0.1272436490538903 1.0625 -0.14174682452694518
v 0.1395031754730548 1.016746824526945 -0.18750000000000003
vt 0.33007624505619765 0.8585175565733957
vt 0.3232088330376065 0.8537266164012253
vt 0.3358974690518416 0.8428545529738639
vt 0.1082503185920293 0.4443613207214525
vt 0.11131588943498118 0.4281850439951117
vt 0.1248138903283152 0.4334901930645706
vt 0.11604344364992382 0.4474242698556079
vt 0.5273424801578779 0.769192385622102
vt 0.5239984452067015 0.7533271198266311
vt 0.5405849815746169 0.7510152734689665
vt 0.541706748731025 0.7671902809484834
vt 0.5239984452067015 0.7533271198266311
vt 0.5228766780502934 0.7371521123471143
vt 0.5372409466234405 0.7351500076734956
vt 0.5405849815746169 0.7510152734689665
vt 0.5228766780502934 0.7371521123471143
vt 0.5236782877234207 0.720707445270756
vt 0.5319715559073784 0.7195515220919236
vt 0.5372409466234405 0.7351500076734956
vt 0.028898210585590216 0.5970411119620478
vt 0.03659775846969821 0.59375
vt 0.039105333355623155 0.6102705447476131
vt 0.3232088330376065 0.8537266164012253
vt 0.31952723924868176 0.8462059566735314
vt 0.3358974690518416 0.8428545529738639
vt 0.11604426141960765 0.4474229706212599
vt 0.1248138903283152 0.4334901930645706
vt 0.13543474173000253 0.44336633351866006
vt 0.122176252656587 0.453125
vt 0.16141813571868163 0.5015671467382324
vt 0.16254001071868163 0.48539058423823245
vt 0.1791265625 0.4877023200084426
vt 0.1757824176401406 0.5035691556409281
vt 0.16254001071868163 0.48539058423823245
vt 0.16588415557854103 0.4695237486057471
vt 0.1802484375 0.4715257575084426
vt 0.1791265625 0.4877023200084426
vt 0.16588415557854103 0.4695237486057471
vt 0.17115322660747953 0.4539267754336016
vt 0.1794465024981387 0.45508264331870674
vt 0.1802484375 0.4715257575084426
vt 0.01839632091864963 0.6097225763858753
vt 0.019986849682225673 0.6015015865538269
vt 0.035073784030719236 0.6086840414986601
vt 0.3195272392486818 0.8462059566735314
vt 0.3199563297975634 0.8378450851689282
vt 0.33589708550990066 0.8428546314946846
vt 0.0036265624999999996 1
vt 0.0005609374999999972 0.984375
vt 0.015064062500000003 0.984375
vt 0.0119984375 1
vt 0.18526717129516262 0.507534841696532
vt 0.17976478572329024 0.49228152956930915
vt 0.19587343749999997 0.4877023200084426
vt 0.19921758235985937 0.5035691556409281
vt 0.1791265625 0.4877023200084426
vt 0.1802484375 0.4715257575084426
vt 0.19475156249999998 0.4715257575084426
vt 0.19587343749999997 0.4877023200084426
vt 0.1802485264517261 0.47152758140113504
vt 0.1794465024981387 0.4550826433187066
vt 0.18758627667512595 0.453125
vt 0.19434956861499514 0.46813623289717177
vt 0.020993272534449665 0.617681479157038
vt 0.018396320918649657 0.6097225763858753
vt 0.035073393290537304 0.6086840658307368
vt 0.3199563297975634 0.8378450851689282
vt 0.32438784946836985 0.8307404325402867
vt 0.3358970855099006 0.8428546314946846
vt 0.3199563297975634 0.8378450851689282
vt 0.30460848313616257 0.8318849816618439
vt 0.3122840505152306 0.8195794422516834
vt 0.32438784946836985 0.8307404325402867
vt 0.19921758235985937 0.5035691556409281
vt 0.19587343749999997 0.4877023200084426
vt 0.21245998928131835 0.48539058423823245
vt 0.21358186428131837 0.5015671467382323
vt 0.19587343749999997 0.4877023200084426
vt 0.19475156249999998 0.4715257575084426
vt 0.20911584442145895 0.4695237486057471
vt 0.21245998928131835 0.48539058423823245
vt 0.00773365768443602 0.6274416966231771
vt 0.020993272534449665 0.617681479157038
vt 0.027125896175524238 0.6233828283695788
vt 0.01835560443503393 0.6373166590025023
vt 0.027125896175524238 0.6233828283695788
vt 0.020993272534449665 0.617681479157038
vt 0.03507339329053729 0.6086840658307368
vt 0.32438784946836985 0.8307404325402867
vt 0.33170973837650375 0.8266778719704795
vt 0.33589577396986925 0.8428532510158397
vt 0.32438784946836985 0.8307404325402867
vt 0.3138587888942006 0.8180827031079396
vt 0.3265405901342264 0.8110461874876839
vt 0.33170973837650375 0.8266778719704795
vt 0.5252592172070385 0.921875
vt 0.521915072347179 0.9060081643675146
vt 0.5385016241284974 0.9036964285973044
vt 0.5396234991284975 0.9198729910973045
vt 0.521915072347179 0.9060081643675146
vt 0.5207931973471791 0.8898316018675146
vt 0.5351574792686381 0.887829592964819
vt 0.5385016241284974 0.9036964285973044
vt 0.018355449497132865 0.637316905160616
vt 0.027125896175524238 0.6233828283695788
vt 0.034919021233418744 0.6264457775037341
vt 0.03185345039046688 0.6426220542300749
vt 0.034919021233418744 0.6264457775037341
vt 0.027125896175524238 0.6233828283695788
vt 0.03693844170022575 0.609860008838151
vt 0.33170973837650375 0.8266778719704795
vt 0.3400816133765037 0.8266778719704795
vt 0.3358956758765037 0.8428528719704795
vt 0.33170973837650375 0.8266778719704795
vt 0.32864411337650373 0.8105013094704795
vt 0.34314723837650374 0.8105013094704795
vt 0.3400816133765037 0.8266778719704795
vt 0.5396234991284975 0.9198729910973045
vt 0.5385016241284974 0.9036964285973044
vt 0.5552484991284975 0.9036964285973044
vt 0.5541266241284974 0.9198729910973045
vt 0.5391395869288703 0.8991185294772123
vt 0.5446421758970494 0.8838652907234491
vt 0.5585925340796738 0.8878311628018336
vt 0.555248177642226 0.9036979538400787
vt 0.03185339623341874 0.6426223400037341
vt 0.034919021233418744 0.6264457775037341
vt 0.043290896233418745 0.6264457775037341
vt 0.04635652123341875 0.6426223400037341
vt 0.043290896233418745 0.6264457775037341
vt 0.034919021233418744 0.6264457775037341
vt 0.039104958733418745 0.610270777503734
vt 0.3400816133765037 0.8266778719704795
vt 0.3478744528009971 0.8297415477481146
vt 0.3380586205592545 0.8432643347377988
vt 0.3400816133765037 0.8266778719704795
vt 0.34314723837650374 0.8105013094704795
vt 0.3566447445414874 0.815807717115191
vt 0.3478744528009971 0.8297415477481146
vt 0.5541267319720894 0.9198714360768213
vt 0.5552484991284975 0.9036964285973044
vt 0.5718350354964128 0.9060082749549692
vt 0.5684910005452364 0.9218735407504399
vt 0.5552484991284975 0.9036964285973044
vt 0.5585925340796738 0.8878311628018336
vt 0.5729568026528209 0.8898332674754522
vt 0.5718350354964128 0.9060082749549692
vt 0.04845689665984541 0.6420788088972671
vt 0.043290896233418745 0.6264457775037341
vt 0.05061324807125383 0.6223840513769059
vt 0.06113949971242711 0.6350437385652612
vt 0.05061324807125383 0.6223840513769059
vt 0.043290896233418745 0.6264457775037341
vt 0.0391045797531999 0.610269313075505
vt 0.3478752705851292 0.8297402484908118
vt 0.35400779351935385 0.8354417060261807
vt 0.3399275138394767 0.8444388706465904
vt 0.3478752705851292 0.8297402484908118
vt 0.3566447445414874 0.815807717115191
vt 0.36726651686383743 0.8256828671139396
vt 0.35400779351935385 0.8354417060261807
vt 0.08775915557854104 0.5148495571149257
vt 0.08441501071868164 0.4989827214824404
vt 0.1010015625 0.49667098571223023
vt 0.1021234375 0.5128475482122301
vt 0.08441501071868164 0.4989827214824404
vt 0.08329313571868165 0.4828061589824404
vt 0.0976574176401406 0.48080415007974486
vt 0.1010015625 0.49667098571223023
vt 0.06271519826724833 0.6335447818842506
vt 0.05061324807125383 0.6223840513769058
vt 0.05504510068436776 0.6152796064315184
vt 0.07039134231556399 0.6212396021897018
vt 0.05504510068436776 0.6152796064315184
vt 0.05061324807125383 0.6223840513769058
vt 0.0391045797531999 0.610269313075505
vt 0.35400779351935385 0.8354417060261807
vt 0.3566046045525142 0.8434006546674073
vt 0.3399275138394767 0.8444388706465904
vt 0.10928848722338876 0.53125
vt 0.10252546043578017 0.5162386476416307
vt 0.1166265625 0.5128475482122301
vt 0.11742829597797719 0.5292925004586589
vt 0.1021234375 0.5128475482122301
vt 0.1010015625 0.49667098571223023
vt 0.1177484375 0.49667098571223023
vt 0.1166265625 0.5128475482122301
vt 0.10163978572329024 0.4920917761513637
vt 0.10714217129516262 0.4768384640241409
vt 0.1210925823598594 0.48080415007974486
vt 0.1177484375 0.49667098571223023
vt 0.09537446413185707 0.5661145116341553
vt 0.09844008913185708 0.5499379491341554
vt 0.10681196413185708 0.5499379491341554
vt 0.10987758913185708 0.5661145116341553
vt 0.05547458305046193 0.6069187550446775
vt 0.05504510068436776 0.6152796064315184
vt 0.0391045797531999 0.610269313075505
vt 0.3566046045525142 0.8434006546674073
vt 0.3550139305775718 0.8516216164038374
vt 0.33992712309886497 0.8444388949717652
vt 0.11742828181462761 0.5292922099436512
vt 0.1166265625 0.5128475482122301
vt 0.13099084442145897 0.5148495571149257
vt 0.1257215577052868 0.5304480778287564
vt 0.1166265625 0.5128475482122301
vt 0.1177484375 0.49667098571223023
vt 0.13433498928131837 0.4989827214824404
vt 0.13099084442145897 0.5148495571149257
vt 0.1177484375 0.49667098571223023
vt 0.1210925823598594 0.48080415007974486
vt 0.13545686428131837 0.4828061589824404
vt 0.13433498928131837 0.4989827214824404
vt 0.10987753497480894 0.5661142258604961
vt 0.10681196413185708 0.5499379491341554
vt 0.11460508918975158 0.546875
vt 0.12337553586814293 0.5608090767910373
vt 0.051793341708201816 0.5993979227937599
vt 0.05547458305046193 0.6069187550446775
vt 0.039104196207579635 0.6102693915783517
vt 0.346103863521863 0.8560844046748026
vt 0.33840409482584394 0.859375
vt 0.3358968056917128 0.8428563378582957
vt 0.0920855500104878 0.4474252822727468
vt 0.08331525826999749 0.43349145163982317
vt 0.09681276443498117 0.4281850439951117
vt 0.09987838943498117 0.4443616064951117
vt 0.489543251268975 0.767193501576904
vt 0.490665126268975 0.751016939076904
vt 0.5072516780502934 0.7533286748471142
vt 0.503907533190434 0.7691955104795996
vt 0.490665126268975 0.751016939076904
vt 0.4940092711288344 0.7351501034444187
vt 0.5083735530502934 0.7371521123471143
vt 0.5072516780502934 0.7533286748471142
vt 0.4940092711288344 0.7351501034444187
vt 0.49927701030332144 0.7195513670433544
vt 0.5075702861939806 0.7207072349284596
vt 0.5083735530502934 0.7371521123471143
vt 0.04492560823934453 0.5946074434266043
vt 0.05179334170820183 0.5993979227937599
vt 0.03910504760382932 0.6102686621417043
vt 0.33840409482584394 0.859375
vt 0.33007624505619765 0.8585175565733957
vt 0.3358968056917128 0.8428563378582957
vt 0.09987838943498117 0.4443616064951117
vt 0.09681276443498117 0.4281850439951117
vt 0.11131588943498118 0.4281850439951117
vt 0.10825026443498117 0.4443616064951117
vt 0.5133924434615249 0.7731597829432607
vt 0.5078898544933458 0.7579065441894975
vt 0.5239984452067015 0.7533271198266311
vt 0.5273428016441493 0.7691939108648762
vt 0.5072516780502934 0.7533286748471142
vt 0.5083735530502934 0.7371521123471143
vt 0.5228766780502934 0.7371521123471143
vt 0.5239985530502934 0.7533286748471142
vt 0.5087755392154993 0.7337613974491597
vt 0.5155384659177779 0.71875
vt 0.5236782877234207 0.720707445270756
vt 0.5228766638888808 0.7371524028622163
vt 0.03659775846969821 0.59375
vt 0.044925608239344515 0.5946074434266043
vt 0.0391050476038293 0.6102686621417043
vn 0.1294095225512606 0.9659258262890683 0.22414386804201356
vn 0.3535533905932739 0.7071067811865477 0.6123724356957942
vn 0.48296291314453416 0.25881904510252063 0.8365163037378079
vn 0.4829629131445349 -0.2588190451025203 0.8365163037378076
vn 0.35355339059327395 -0.7071067811865476 0.6123724356957945
vn 0.1294095225512606 -0.9659258262890683 0.22414386804201356
vn 0.22414386804201342 0.9659258262890683 0.12940952255126073
vn 0.6123724356957944 0.7071067811865476 0.3535533905932742
vn 0.8365163037378076 0.25881904510252096 0.48296291314453466
vn 0.8365163037378075 -0.2588190451025211 0.48296291314453466
vn 0.6123724356957945 -0.7071067811865474 0.35355339059327456
vn 0.22414386804201342 -0.9659258262890683 0.12940952255126073
vn 0.2588190451025209 0.9659258262890684 0
vn 0.7071067811865476 0.7071067811865475 0
vn 0.9659258262890683 0.2588190451025213 0
vn 0.9659258262890682 -0.25881904510252135 0
vn 0.707106781186548 -0.707106781186547 0
vn 0.2588190451025209 -0.9659258262890684 0
vn 0.22414386804201328 0.9659258262890683 -0.1294095225512609
vn 0.6123724356957944 0.7071067811865475 -0.3535533905932742
vn 0.8365163037378076 0.2588190451025209 -0.48296291314453466
vn 0.8365163037378075 -0.258819045102521 -0.4829629131445347
vn 0.6123724356957945 -0.707106781186547 -0.3535533905932752
vn 0.22414386804201328 -0.9659258262890683 -0.1294095225512609
vn 0.12940952255126073 0.9659258262890683 -0.22414386804201342
vn 0.35355339059327334 0.707106781186548 -0.6123724356957944
vn 0.48296291314453416 0.25881904510252096 -0.8365163037378078
vn 0.4829629131445348 -0.2588190451025211 -0.8365163037378075
vn 0.35355339059327434 -0.7071067811865478 -0.6123724356957939
vn 0.12940952255126073 -0.9659258262890683 -0.22414386804201342
vn 0 0.9659258262890683 -0.25881904510252085
vn 6.932057920814797e-16 0.7071067811865476 -0.7071067811865476
vn 0 0.25881904510252135 -0.9659258262890683
vn 9.242743894419718e-16 -0.2588190451025206 -0.9659258262890683
vn 0 -0.7071067811865476 -0.7071067811865476
vn 0 -0.9659258262890683 -0.25881904510252085
vn -0.12940952255126034 0.9659258262890683 -0.22414386804201353
vn -0.3535533905932732 0.7071067811865479 -0.6123724356957945
vn -0.48296291314453327 0.2588190451025204 -0.8365163037378087
vn -0.4829629131445345 -0.25881904510251963 -0.836516303737808
vn -0.3535533905932733 -0.707106781186548 -0.6123724356957944
vn -0.12940952255126034 -0.9659258262890683 -0.22414386804201353
vn -0.22414386804201333 0.9659258262890683 -0.1294095225512607
vn -0.6123724356957941 0.7071067811865481 -0.3535533905932731
vn -0.8365163037378083 0.2588190451025209 -0.4829629131445335
vn -0.8365163037378079 -0.258819045102521 -0.482962913144534
vn -0.6123724356957938 -0.707106781186548 -0.3535533905932743
vn -0.22414386804201333 -0.9659258262890683 -0.1294095225512607
vn -0.2588190451025209 0.9659258262890683 0
vn -0.7071067811865471 0.7071067811865479 0
vn -0.9659258262890685 0.25881904510252046 0
vn -0.9659258262890684 -0.25881904510252063 -9.242743894419727e-16
vn -0.7071067811865476 -0.7071067811865476 0
vn -0.2588190451025209 -0.9659258262890683 0
vn -0.2241438680420136 0.9659258262890683 0.12940952255126026
vn -0.6123724356957946 0.7071067811865479 0.3535533905932734
vn -0.8365163037378085 0.25881904510252035 0.4829629131445334
vn -0.836516303737808 -0.2588190451025197 0.48296291314453477
vn -0.6123724356957946 -0.7071067811865479 0.353553390593273
vn -0.2241438680420136 -0.9659258262890683 0.12940952255126026
vn -0.12940952255126054 0.9659258262890683 0.22414386804201347
vn -0.3535533905932739 0.7071067811865477 0.6123724356957944
vn -0.4829629131445341 0.2588190451025209 0.8365163037378079
vn -0.48296291314453466 -0.2588190451025211 0.8365163037378075
vn -0.3535533905932741 -0.7071067811865474 0.6123724356957946
vn -0.12940952255126054 -0.9659258262890683 0.22414386804201347
vn 0 0.9659258262890683 0.25881904510252096
vn 0 0.7071067811865477 0.7071067811865474
vn 0 0.2588190451025209 0.9659258262890683
vn 0 -0.2588190451025205 0.9659258262890683
vn 0 -0.7071067811865476 0.7071067811865476
vn 0 -0.9659258262890683 0.25881904510252096
usemtl m_089595f9-e365-0ef3-e8d0-cd71ecd6bee1
f 165/697/193 170/698/193 164/699/193
f 165/700/194 166/701/194 171/702/194 170/703/194
f 166/704/195 167/705/195 172/706/195 171/707/195
f 167/708/196 168/709/196 173/710/196 172/711/196
f 168/712/197 169/713/197 174/714/197 173/715/197
f 174/716/198 169/717/198 163/718/198
f 170/719/199 175/720/199 164/721/199
f 170/722/200 171/723/200 176/724/200 175/725/200
f 171/726/201 172/727/201 177/728/201 176/729/201
f 172/730/202 173/731/202 178/732/202 177/733/202
f 173/734/203 174/735/203 179/736/203 178/737/203
f 179/738/204 174/739/204 163/740/204
f 175/741/205 180/742/205 164/743/205
f 175/744/206 176/745/206 181/746/206 180/747/206
f 176/748/207 177/749/207 182/750/207 181/751/207
f 177/752/208 178/753/208 183/754/208 182/755/208
f 178/756/209 179/757/209 184/758/209 183/759/209
f 184/760/210 179/761/210 163/762/210
f 180/763/211 185/764/211 164/765/211
f 180/766/212 181/767/212 186/768/212 185/769/212
f 181/770/213 182/771/213 187/772/213 186/773/213
f 182/774/214 183/775/214 188/776/214 187/777/214
f 183/778/215 184/779/215 189/780/215 188/781/215
f 189/782/216 184/783/216 163/784/216
f 185/785/217 190/786/217 164/787/217
f 185/788/218 186/789/218 191/790/218 190/791/218
f 186/792/219 187/793/219 192/794/219 191/795/219
f 187/796/220 188/797/220 193/798/220 192/799/220
f 188/800/221 189/801/221 194/802/221 193/803/221
f 194/804/222 189/805/222 163/806/222
f 190/807/223 195/808/223 164/809/223
f 190/810/224 191/811/224 196/812/224 195/813/224
f 191/814/225 192/815/225 197/816/225 196/817/225
f 192/818/226 193/819/226 198/820/226 197/821/226
f 193/822/227 194/823/227 199/824/227 198/825/227
f 199/826/228 194/827/228 163/828/228
f 195/829/229 200/830/229 164/831/229
f 195/832/230 196/833/230 201/834/230 200/835/230
f 196/836/231 197/837/231 202/838/231 201/839/231
f 197/840/232 198/841/232 203/842/232 202/843/232
f 198/844/233 199/845/233 204/846/233 203/847/233
f 204/848/234 199/849/234 163/850/234
f 200/851/235 205/852/235 164/853/235
f 200/854/236 201/855/236 206/856/236 205/857/236
f 201/858/237 202/859/237 207/860/237 206/861/237
f 202/862/238 203/863/238 208/864/238 207/865/238
f 203/866/239 204/867/239 209/868/239 208/869/239
f 209/870/240 204/871/240 163/872/240
f 205/873/241 210/874/241 164/875/241
f 205/876/242 206/877/242 211/878/242 210/879/242
f 206/880/243 207/881/243 212/882/243 211/883/243
f 207/884/244 208/885/244 213/886/244 212/887/244
f 208/888/245 209/889/245 214/890/245 213/891/245
f 214/892/246 209/893/246 163/894/246
f 210/895/247 215/896/247 164/897/247
f 210/898/248 211/899/248 216/900/248 215/901/248
f 211/902/249 212/903/249 217/904/249 216/905/249
f 212/906/250 213/907/250 218/908/250 217/909/250
f 213/910/251 214/911/251 219/912/251 218/913/251
f 219/914/252 214/915/252 163/916/252
f 215/917/253 220/918/253 164/919/253
f 215/920/254 216/921/254 221/922/254 220/923/254
f 216/924/255 217/925/255 222/926/255 221/927/255
f 217/928/256 218/929/256 223/930/256 222/931/256
f 218/932/257 219/933/257 224/934/257 223/935/257
f 224/936/258 219/937/258 163/938/258
f 220/939/259 165/940/259 164/941/259
f 220/942/260 221/943/260 166/944/260 165/945/260
f 221/946/261 222/947/261 167/948/261 166/949/261
f 222/950/262 223/951/262 168/952/262 167/953/262
f 223/954/263 224/955/263 169/956/263 168/957/263
f 169/958/264 224/959/264 163/960/264
o orb_3
v 0.15625 1 0.25
v 0.15625 1.25 0.25
v 0.17299682452694515 1.233253175473055 0.3125
v 0.18525635094610965 1.1875 0.3582531754730548
v 0.1897436490538903 1.125 0.375
v 0.18525635094610965 1.0625 0.3582531754730548
v 0.17299682452694515 1.016746824526945 0.3125
v 0.2020031754730548 1.233253175473055 0.2957531754730548
v 0.2354968245269451 1.1875 0.32924682452694515
v 0.2477563509461096 1.125 0.34150635094610965
v 0.2354968245269451 1.0625 0.32924682452694515
v 0.2020031754730548 1.016746824526945 0.2957531754730548
v 0.21875 1.233253175473055 0.26674682452694515
v 0.2645031754730548 1.1875 0.27900635094610965
v 0.28125 1.125 0.2834936490538903
v 0.2645031754730548 1.0625 0.27900635094610965
v 0.21875 1.016746824526945 0.26674682452694515
v 0.21875 1.233253175473055 0.2332531754730548
v 0.2645031754730548 1.1875 0.2209936490538903
v 0.28125 1.125 0.21650635094610965
v 0.2645031754730548 1.0625 0.2209936490538903
v 0.21875 1.016746824526945 0.2332531754730548
v 0.2020031754730548 1.233253175473055 0.2042468245269452
v 0.2354968245269451 1.1875 0.1707531754730548
v 0.2477563509461096 1.125 0.1584936490538903
v 0.2354968245269451 1.0625 0.1707531754730548
v 0.2020031754730548 1.016746824526945 0.2042468245269452
v 0.17299682452694515 1.233253175473055 0.1875
v 0.18525635094610965 1.1875 0.1417468245269452
v 0.18974364905389035 1.125 0.125
v 0.1852563509461097 1.0625 0.14174682452694515
v 0.17299682452694515 1.016746824526945 0.1875
v 0.13950317547305485 1.233253175473055 0.1875
v 0.12724364905389035 1.1875 0.14174682452694515
v 0.1227563509461097 1.125 0.125
v 0.12724364905389035 1.0625 0.1417468245269451
v 0.13950317547305485 1.016746824526945 0.1875
v 0.1104968245269452 1.233253175473055 0.20424682452694515
v 0.0770031754730548 1.1875 0.1707531754730548
v 0.0647436490538903 1.125 0.1584936490538903
v 0.0770031754730548 1.0625 0.1707531754730548
v 0.1104968245269452 1.016746824526945 0.20424682452694515
v 0.09375 1.233253175473055 0.2332531754730548
v 0.04799682452694515 1.1875 0.22099364905389035
v 0.03125 1.125 0.21650635094610965
v 0.04799682452694515 1.0625 0.2209936490538903
v 0.09375 1.016746824526945 0.2332531754730548
v 0.09375 1.233253175473055 0.2667468245269451
v 0.04799682452694515 1.1875 0.2790063509461096
v 0.03125 1.125 0.28349364905389024
v 0.04799682452694509 1.0625 0.2790063509461096
v 0.09375 1.016746824526945 0.2667468245269451
v 0.11049682452694515 1.233253175473055 0.2957531754730548
v 0.0770031754730548 1.1875 0.3292468245269451
v 0.0647436490538903 1.125 0.3415063509461096
v 0.0770031754730548 1.0625 0.3292468245269451
v 0.11049682452694515 1.016746824526945 0.2957531754730548
v 0.1395031754730548 1.233253175473055 0.3125
v 0.1272436490538903 1.1875 0.3582531754730548
v 0.12275635094610965 1.125 0.375
v 0.1272436490538903 1.0625 0.3582531754730548
v 0.1395031754730548 1.016746824526945 0.3125
vt 0.12694805935238096 0.6553925565733957
vt 0.12008075961352732 0.6506014554616316
vt 0.13276875638706165 0.6397309708528992
vt 0.5236782201861302 0.8574172099436512
vt 0.5228765008715025 0.8409725482122301
vt 0.5372407827929615 0.8429745571149257
vt 0.5319714960767894 0.8585730778287564
vt 0.5228765008715025 0.8409725482122301
vt 0.5239983758715026 0.8247959857122302
vt 0.540584927652821 0.8271077214824404
vt 0.5372407827929615 0.8429745571149257
vt 0.5239983758715026 0.8247959857122302
vt 0.5273425207313619 0.8089291500797449
vt 0.5417068026528209 0.8109311589824404
vt 0.540584927652821 0.8271077214824404
vt 0.5750617653264097 0.4624414100393448
vt 0.5719961944834578 0.446265133313004
vt 0.5797893195413524 0.4432021841788486
vt 0.5885597662197437 0.4571362609698859
vt 0.41952222130236266 0.8001662924035341
vt 0.4272216920556577 0.796875
vt 0.4297290399456659 0.8133940492404518
vt 0.12008075961352732 0.6506014554616316
vt 0.11640019912080937 0.6430802899917161
vt 0.1327702024180714 0.6397297319608886
vt 0.19789497615799845 0.65625
vt 0.18912468441750815 0.6423161693670765
vt 0.20262219058249184 0.6370097617223649
vt 0.20568781558249183 0.6531863242223649
vt 0.47391813571868163 0.5171945251640071
vt 0.4750400107186816 0.5010179626640072
vt 0.49162656250000003 0.5033296984342174
vt 0.4882824176401406 0.5191965340667027
vt 0.4750400107186816 0.5010179626640072
vt 0.478384155578541 0.48515112703152186
vt 0.49274843749999997 0.4871531359342174
vt 0.49162656250000003 0.5033296984342174
vt 0.478384155578541 0.48515112703152175
vt 0.48365189475302806 0.4695523906304575
vt 0.49194517064368726 0.47070825851556264
vt 0.49274843749999997 0.4871531359342174
vt 0.40902245083534955 0.8128463712248268
vt 0.41061389142199567 0.8046255578571859
vt 0.4256997320681934 0.811811220148439
vt 0.11640019912080937 0.6430802899917161
vt 0.11682968148690351 0.6347194386048751
vt 0.13277020241807136 0.6397297319608886
vt 0.20568781558249183 0.6531863242223649
vt 0.20262219058249184 0.6370097617223649
vt 0.21712531558249185 0.6370097617223649
vt 0.21405969058249186 0.6531863242223649
vt 0.4977671712951626 0.5231622201223066
vt 0.49226478572329024 0.5079089079950838
vt 0.5083734375 0.5033296984342174
vt 0.5117175823598594 0.5191965340667027
vt 0.49162656250000003 0.5033296984342174
vt 0.49274843749999997 0.4871531359342174
vt 0.5072515625 0.4871531359342174
vt 0.5083734375 0.5033296984342174
vt 0.49274843749999997 0.4871531359342174
vt 0.49194517064368726 0.47070825851556264
vt 0.5000847968391493 0.46875
vt 0.5068492233055764 0.48376072168609263
vt 0.41161779914361646 0.8208057969688363
vt 0.40902245083534955 0.8128463712248268
vt 0.42569973206819334 0.811811220148439
vt 0.11682968148690351 0.6347194386048751
vt 0.12126217722223963 0.6276153948886081
vt 0.13277057590101315 0.6397298493509731
vt 0.11682968148690351 0.6347194386048751
vt 0.10148480656848763 0.6287567280012925
vt 0.1091620645299338 0.6164522432514528
vt 0.12126217722223963 0.6276153948886081
vt 0.5117175823598594 0.5191965340667027
vt 0.5083734375 0.5033296984342174
vt 0.5249599892813184 0.5010179626640072
vt 0.5260818642813183 0.5171945251640071
vt 0.5083734375 0.5033296984342174
vt 0.5072515625 0.4871531359342174
vt 0.5216158444214589 0.48515112703152186
vt 0.5249599892813184 0.5010179626640072
vt 0.3983593100702009 0.8305644634501762
vt 0.41161779914361646 0.8208057969688363
vt 0.4177497903805958 0.8265078263475764
vt 0.40898016147188826 0.8404406039042657
vt 0.4177497903805958 0.8265078263475764
vt 0.41161779914361646 0.8208057969688363
vt 0.42570006200482197 0.8118110094074584
vt 0.12126217722223963 0.6276153948886081
vt 0.1285841613363088 0.6235530059116975
vt 0.13277057590101315 0.6397298493509731
vt 0.12126217722223963 0.6276153948886081
vt 0.11073341329058076 0.6149574187064362
vt 0.12341537943105285 0.6079212002918655
vt 0.1285841613363088 0.6235530059116975
vt 0.5096339994547636 0.6249985407504399
vt 0.5062899645035872 0.6091332749549692
vt 0.5228765008715025 0.6068214285973044
vt 0.5239982680279106 0.6229964360768214
vt 0.5062899645035872 0.6091332749549692
vt 0.5051681973471791 0.5929582674754522
vt 0.5195324659203262 0.5909561628018336
vt 0.5228765008715025 0.6068214285973044
vt 0.4089793437022044 0.8404419031386137
vt 0.4177497903805958 0.8265078263475764
vt 0.42554291543849027 0.8295707754817316
vt 0.42247734459553843 0.8457470522080726
vt 0.42554291543849027 0.8295707754817316
vt 0.4177497903805958 0.8265078263475764
vt 0.4275629074576642 0.812983552603598
vt 0.1285841613363088 0.6235530059116975
vt 0.13695603633630876 0.6235530059116975
vt 0.13277009883630878 0.6397280059116974
vt 0.1285841613363088 0.6235530059116975
vt 0.12551853633630877 0.6073764434116975
vt 0.14002166133630878 0.6073764434116975
vt 0.13695603633630876 0.6235530059116975
vt 0.5239983758715026 0.6229979910973045
vt 0.5228765008715025 0.6068214285973044
vt 0.5396233758715026 0.6068214285973044
vt 0.5385015008715025 0.6229979910973045
vt 0.5235147240947928 0.6022422190364379
vt 0.5290171096666652 0.5869889069092151
vt 0.5429675207313619 0.590954592964819
vt 0.5396233758715026 0.6068214285973044
vt 0.4224772904384903 0.8457473379817317
vt 0.42554291543849027 0.8295707754817316
vt 0.4339147904384903 0.8295707754817316
vt 0.4369804154384903 0.8457473379817317
vt 0.4339147904384903 0.8295707754817316
vt 0.42554291543849027 0.8295707754817316
vt 0.4297288529384903 0.8133957754817317
vt 0.13695603633630876 0.6235530059116975
vt 0.14474887576080214 0.6266166816893326
vt 0.13493361520701963 0.6401380145197662
vt 0.13695603633630876 0.6235530059116975
vt 0.14002166133630878 0.6073764434116975
vt 0.15351916750129246 0.612682851056409
vt 0.14474887576080214 0.6266166816893326
vt 0.5385015008715025 0.6229979910973045
vt 0.5396233758715026 0.6068214285973044
vt 0.5562099276528208 0.6091331643675146
vt 0.5528657827929615 0.625
vt 0.5396233758715026 0.6068214285973044
vt 0.5429675207313619 0.590954592964819
vt 0.5573318026528209 0.5929566018675146
vt 0.5562099276528208 0.6091331643675146
vt 0.43908115711112555 0.8452036858429189
vt 0.4339147904384903 0.8295707754817316
vt 0.44123704711698425 0.82550887780938
vt 0.451763595343964 0.83816831838728
vt 0.44123704711698425 0.82550887780938
vt 0.4339147904384903 0.8295707754817316
vt 0.4297288529384903 0.8133957754817317
vt 0.14474872082290113 0.6266169278474463
vt 0.15088081282463012 0.6323188488613448
vt 0.13679870892063212 0.6413138852816942
vt 0.14474872082290113 0.6266169278474463
vt 0.15351916750129246 0.612682851056409
vt 0.16414019343151237 0.622558803818306
vt 0.15088081282463012 0.6323188488613448
vt 0.16588415557854105 0.577348743323925
vt 0.16254001071868163 0.5614819076914397
vt 0.1791265625 0.5591701719212294
vt 0.1802484375 0.5753467344212294
vt 0.16254001071868163 0.5614819076914397
vt 0.16141813571868163 0.5453053451914396
vt 0.1757824176401406 0.543303336288744
vt 0.1791265625 0.5591701719212294
vt 0.4533390086050344 0.836672289433914
vt 0.44123704711698425 0.82550887780938
vt 0.44566920992881515 0.8184046263797197
vt 0.4610156899297991 0.8243674449162604
vt 0.44566920992881515 0.8184046263797197
vt 0.44123704711698425 0.82550887780938
vt 0.42972808072803526 0.8133949626813813
vt 0.15088081282463012 0.6323188488613448
vt 0.15347630179068733 0.6402782287393692
vt 0.1367990388535365 0.6413136745348831
vt 0.18741552838041992 0.59375
vt 0.18065083664703918 0.5787393978565362
vt 0.1947515625 0.5753467344212294
vt 0.19555511996845742 0.5917915976420627
vt 0.1802484375 0.5753467344212294
vt 0.1791265625 0.5591701719212294
vt 0.1958734375 0.5591701719212294
vt 0.1947515625 0.5753467344212294
vt 0.17976478572329027 0.5545909623603629
vt 0.18526717129516262 0.5393376502331402
vt 0.1992175823598594 0.543303336288744
vt 0.1958734375 0.5591701719212294
vt 0.0005609374999999972 0.96875
vt 0.0036265624999999996 0.953125
vt 0.0119984375 0.953125
vt 0.015064062500000003 0.96875
vt 0.4460983004776967 0.8100437548751165
vt 0.4456692099288151 0.8184046263797197
vt 0.4297284542164779 0.8133950800539632
vt 0.15347630179068733 0.6402782287393692
vt 0.1518850064817019 0.6484990702295093
vt 0.1367990388535365 0.6413136745348831
vt 0.1955550450435464 0.591790064298199
vt 0.1947515625 0.5753467344212294
vt 0.20911584442145897 0.577348743323925
vt 0.20384832093420557 0.5929459321833042
vt 0.1947515625 0.5753467344212294
vt 0.1958734375 0.5591701719212294
vt 0.21245998928131837 0.5614819076914397
vt 0.20911584442145897 0.577348743323925
vt 0.1958734375 0.5591701719212294
vt 0.1992175823598594 0.543303336288744
vt 0.21358186428131837 0.5453053451914396
vt 0.21245998928131837 0.5614819076914397
vt 0.5364402337802563 0.44725883891224116
vt 0.5496989571247398 0.4375
vt 0.5558314800589645 0.4432014575353689
vt 0.5470620061026062 0.4571339889109898
vt 0.4424173875226977 0.802522761896518
vt 0.4460983004776967 0.8100437548751165
vt 0.4297284542164779 0.8133950800539632
vt 0.14297575490736208 0.6529595850643927
vt 0.13527590912202728 0.65625
vt 0.1327683929866605 0.639729842316092
vt 0.49927684263057853 0.8585717991444892
vt 0.49400899945476356 0.8429730978653657
vt 0.5083732680279106 0.8409709931917471
vt 0.5075701108145362 0.8574158759656569
vt 0.49400899945476356 0.8429730978653657
vt 0.4906649645035872 0.8271078320698949
vt 0.5072515008715025 0.8247959857122302
vt 0.5083732680279106 0.8409709931917471
vt 0.4906649645035872 0.8271078320698949
vt 0.4895431973471791 0.810932824590378
vt 0.5039074659203262 0.8089307199167594
vt 0.5072515008715025 0.8247959857122302
vt 0.5470611883184742 0.4571352881682924
vt 0.5558314800589645 0.4432014575353689
vt 0.5636243194834578 0.446265133313004
vt 0.5605586944834579 0.462441695813004
vt 0.435549541825304 0.7977324434266043
vt 0.4424173875226977 0.802522761896518
vt 0.4297284542164779 0.8133950800539632
vt 0.13527590912202728 0.65625
vt 0.12694805935238096 0.6553925565733957
vt 0.13276861998789613 0.6397313378582957
vt 0.5155384255948913 0.859375
vt 0.5087753988072827 0.8443636476416307
vt 0.5228765008715025 0.8409725482122301
vt 0.5236782343494797 0.8574175004586589
vt 0.5083733758715026 0.8409725482122301
vt 0.5072515008715025 0.8247959857122302
vt 0.5239983758715026 0.8247959857122302
vt 0.5228765008715025 0.8409725482122301
vt 0.5078897240947928 0.8202167761513637
vt 0.5133921096666652 0.8049634640241409
vt 0.5273425207313619 0.8089291500797449
vt 0.5239983758715026 0.8247959857122302
vt 0.5605586944834579 0.462441695813004
vt 0.5636243194834578 0.446265133313004
vt 0.5719961944834578 0.446265133313004
vt 0.5750618194834579 0.462441695813004
vt 0.4272216920556577 0.796875
vt 0.435549541825304 0.7977324434266043
vt 0.42972898118978875 0.8133936621417043
vn 0.12940952255126073 0.9659258262890683 0.22414386804201342
vn 0.35355339059327395 0.7071067811865475 0.6123724356957945
vn 0.4829629131445344 0.2588190451025209 0.8365163037378076
vn 0.48296291314453454 -0.2588190451025211 0.8365163037378078
vn 0.3535533905932747 -0.7071067811865471 0.6123724356957946
vn 0.12940952255126073 -0.9659258262890683 0.22414386804201342
vn 0.22414386804201342 0.9659258262890683 0.12940952255126073
vn 0.6123724356957944 0.7071067811865476 0.3535533905932742
vn 0.8365163037378076 0.25881904510252096 0.48296291314453466
vn 0.8365163037378075 -0.2588190451025211 0.48296291314453466
vn 0.6123724356957945 -0.7071067811865474 0.35355339059327456
vn 0.22414386804201342 -0.9659258262890683 0.12940952255126073
vn 0.2588190451025209 0.9659258262890684 0
vn 0.7071067811865476 0.7071067811865475 0
vn 0.9659258262890683 0.2588190451025213 0
vn 0.9659258262890682 -0.25881904510252135 0
vn 0.707106781186548 -0.707106781186547 0
vn 0.2588190451025209 -0.9659258262890684 0
vn 0.22414386804201328 0.9659258262890683 -0.1294095225512609
vn 0.6123724356957944 0.7071067811865475 -0.3535533905932742
vn 0.8365163037378076 0.2588190451025209 -0.48296291314453466
vn 0.8365163037378075 -0.258819045102521 -0.4829629131445347
vn 0.6123724356957945 -0.707106781186547 -0.3535533905932752
vn 0.22414386804201328 -0.9659258262890683 -0.1294095225512609
vn 0.12940952255126073 0.9659258262890683 -0.22414386804201342
vn 0.35355339059327334 0.707106781186548 -0.6123724356957944
vn 0.48296291314453416 0.25881904510252096 -0.8365163037378078
vn 0.4829629131445348 -0.2588190451025211 -0.8365163037378075
vn 0.35355339059327434 -0.7071067811865478 -0.6123724356957939
vn 0.12940952255126073 -0.9659258262890683 -0.22414386804201342
vn 0 0.9659258262890683 -0.25881904510252085
vn 6.932057920814797e-16 0.7071067811865476 -0.7071067811865476
vn 0 0.25881904510252135 -0.9659258262890683
vn 9.242743894419718e-16 -0.2588190451025206 -0.9659258262890683
vn 0 -0.7071067811865476 -0.7071067811865476
vn 0 -0.9659258262890683 -0.25881904510252085
vn -0.12940952255126034 0.9659258262890683 -0.22414386804201353
vn -0.3535533905932732 0.7071067811865479 -0.6123724356957945
vn -0.48296291314453327 0.2588190451025204 -0.8365163037378087
vn -0.4829629131445345 -0.25881904510251963 -0.836516303737808
vn -0.3535533905932733 -0.707106781186548 -0.6123724356957944
vn -0.12940952255126034 -0.9659258262890683 -0.22414386804201353
vn -0.22414386804201333 0.9659258262890683 -0.1294095225512607
vn -0.6123724356957941 0.7071067811865481 -0.3535533905932731
vn -0.8365163037378083 0.2588190451025209 -0.4829629131445335
vn -0.8365163037378079 -0.258819045102521 -0.482962913144534
vn -0.6123724356957938 -0.707106781186548 -0.3535533905932743
vn -0.22414386804201333 -0.9659258262890683 -0.1294095225512607
vn -0.25881904510252085 0.9659258262890683 0
vn -0.7071067811865471 0.7071067811865479 0
vn -0.9659258262890685 0.25881904510252046 0
vn -0.9659258262890684 -0.25881904510252063 -9.242743894419727e-16
vn -0.7071067811865476 -0.7071067811865476 0
vn -0.25881904510252085 -0.9659258262890683 0
vn -0.2241438680420137 0.9659258262890684 0.1294095225512602
vn -0.6123724356957944 0.7071067811865479 0.3535533905932735
vn -0.8365163037378084 0.25881904510252035 0.48296291314453355
vn -0.8365163037378078 -0.25881904510251963 0.4829629131445349
vn -0.6123724356957946 -0.7071067811865481 0.35355339059327273
vn -0.2241438680420137 -0.9659258262890684 0.1294095225512602
vn -0.1294095225512607 0.9659258262890683 0.22414386804201333
vn -0.3535533905932742 0.7071067811865476 0.6123724356957942
vn -0.48296291314453466 0.25881904510252096 0.8365163037378076
vn -0.48296291314453466 -0.2588190451025211 0.8365163037378075
vn -0.35355339059327456 -0.7071067811865474 0.6123724356957945
vn -0.1294095225512607 -0.9659258262890683 0.22414386804201333
vn 0 0.9659258262890684 0.2588190451025209
vn 0 0.7071067811865475 0.7071067811865476
vn 0 0.2588190451025213 0.9659258262890683
vn 0 -0.25881904510252135 0.9659258262890682
vn 0 -0.707106781186547 0.707106781186548
vn 0 -0.9659258262890684 0.2588190451025209
usemtl m_089595f9-e365-0ef3-e8d0-cd71ecd6bee1
f 227/961/265 232/962/265 226/963/265
f 227/964/266 228/965/266 233/966/266 232/967/266
f 228/968/267 229/969/267 234/970/267 233/971/267
f 229/972/268 230/973/268 235/974/268 234/975/268
f 230/976/269 231/977/269 236/978/269 235/979/269
f 236/980/270 231/981/270 225/982/270
f 232/983/271 237/984/271 226/985/271
f 232/986/272 233/987/272 238/988/272 237/989/272
f 233/990/273 234/991/273 239/992/273 238/993/273
f 234/994/274 235/995/274 240/996/274 239/997/274
f 235/998/275 236/999/275 241/1000/275 240/1001/275
f 241/1002/276 236/1003/276 225/1004/276
f 237/1005/277 242/1006/277 226/1007/277
f 237/1008/278 238/1009/278 243/1010/278 242/1011/278
f 238/1012/279 239/1013/279 244/1014/279 243/1015/279
f 239/1016/280 240/1017/280 245/1018/280 244/1019/280
f 240/1020/281 241/1021/281 246/1022/281 245/1023/281
f 246/1024/282 241/1025/282 225/1026/282
f 242/1027/283 247/1028/283 226/1029/283
f 242/1030/284 243/1031/284 248/1032/284 247/1033/284
f 243/1034/285 244/1035/285 249/1036/285 248/1037/285
f 244/1038/286 245/1039/286 250/1040/286 249/1041/286
f 245/1042/287 246/1043/287 251/1044/287 250/1045/287
f 251/1046/288 246/1047/288 225/1048/288
f 247/1049/289 252/1050/289 226/1051/289
f 247/1052/290 248/1053/290 253/1054/290 252/1055/290
f 248/1056/291 249/1057/291 254/1058/291 253/1059/291
f 249/1060/292 250/1061/292 255/1062/292 254/1063/292
f 250/1064/293 251/1065/293 256/1066/293 255/1067/293
f 256/1068/294 251/1069/294 225/1070/294
f 252/1071/295 257/1072/295 226/1073/295
f 252/1074/296 253/1075/296 258/1076/296 257/1077/296
f 253/1078/297 254/1079/297 259/1080/297 258/1081/297
f 254/1082/298 255/1083/298 260/1084/298 259/1085/298
f 255/1086/299 256/1087/299 261/1088/299 260/1089/299
f 261/1090/300 256/1091/300 225/1092/300
f 257/1093/301 262/1094/301 226/1095/301
f 257/1096/302 258/1097/302 263/1098/302 262/1099/302
f 258/1100/303 259/1101/303 264/1102/303 263/1103/303
f 259/1104/304 260/1105/304 265/1106/304 264/1107/304
f 260/1108/305 261/1109/305 266/1110/305 265/1111/305
f 266/1112/306 261/1113/306 225/1114/306
f 262/1115/307 267/1116/307 226/1117/307
f 262/1118/308 263/1119/308 268/1120/308 267/1121/308
f 263/1122/309 264/1123/309 269/1124/309 268/1125/309
f 264/1126/310 265/1127/310 270/1128/310 269/1129/310
f 265/1130/311 266/1131/311 271/1132/311 270/1133/311
f 271/1134/312 266/1135/312 225/1136/312
f 267/1137/313 272/1138/313 226/1139/313
f 267/1140/314 268/1141/314 273/1142/314 272/1143/314
f 268/1144/315 269/1145/315 274/1146/315 273/1147/315
f 269/1148/316 270/1149/316 275/1150/316 274/1151/316
f 270/1152/317 271/1153/317 276/1154/317 275/1155/317
f 276/1156/318 271/1157/318 225/1158/318
f 272/1159/319 277/1160/319 226/1161/319
f 272/1162/320 273/1163/320 278/1164/320 277/1165/320
f 273/1166/321 274/1167/321 279/1168/321 278/1169/321
f 274/1170/322 275/1171/322 280/1172/322 279/1173/322
f 275/1174/323 276/1175/323 281/1176/323 280/1177/323
f 281/1178/324 276/1179/324 225/1180/324
f 277/1181/325 282/1182/325 226/1183/325
f 277/1184/326 278/1185/326 283/1186/326 282/1187/326
f 278/1188/327 279/1189/327 284/1190/327 283/1191/327
f 279/1192/328 280/1193/328 285/1194/328 284/1195/328
f 280/1196/329 281/1197/329 286/1198/329 285/1199/329
f 286/1200/330 281/1201/330 225/1202/330
f 282/1203/331 227/1204/331 226/1205/331
f 282/1206/332 283/1207/332 228/1208/332 227/1209/332
f 283/1210/333 284/1211/333 229/1212/333 228/1213/333
f 284/1214/334 285/1215/334 230/1216/334 229/1217/334
f 285/1218/335 286/1219/335 231/1220/335 230/1221/335
f 231/1222/336 286/1223/336 225/1224/336