# Made in Blockbench 4.7.2
mtllib target_call.mtl

o cube
v 0.9375 1.625 0.0625
v 0.9375 1.625 0.0625
v 0.9375 0.6875 0.0625
v 0.9375 0.6875 0.0625
v -1.3125 1.625 0.0625
v -1.3125 1.625 0.0625
v -1.3125 0.6875 0.0625
v -1.3125 0.6875 0.0625
vt 0 1
vt 0.5625 1
vt 0.5625 0.765625
vt 0 0.765625
vt 0 1
vt 0 1
vt 0 0.765625
vt 0 0.765625
vt 0 0.765625
vt 0.5625 0.765625
vt 0.5625 0.53125
vt 0 0.53125
vt 0 1
vt 0 1
vt 0 0.765625
vt 0 0.765625
vt 0.5625 1
vt 0 1
vt 0 1
vt 0.5625 1
vt 0.5625 1
vt 0 1
vt 0 1
vt 0.5625 1
vn 0 0 -1
vn 1 0 0
vn 0 0 1
vn -1 0 0
vn 0 1 0
vn 0 -1 0
usemtl m_fb674524-887a-015e-2ed3-f3ce6cbf9428
f 4/4/1 7/3/1 5/2/1 2/1/1
f 3/8/2 4/7/2 2/6/2 1/5/2
f 8/12/3 3/11/3 1/10/3 6/9/3
f 7/16/4 8/15/4 6/14/4 5/13/4
f 6/20/5 1/19/5 2/18/5 5/17/5
f 7/24/6 4/23/6 3/22/6 8/21/6